<?xml version="1.0" encoding="UTF-8"?>
<svg version="1.1" xmlns="http://www.w3.org/2000/svg" width="512" height="512">
<path d="M0 0 C1.1858289 -0.00523668 2.37165781 -0.01047336 3.59342092 -0.01586872 C6.87670612 -0.02826234 10.15985846 -0.03171262 13.44316256 -0.03127182 C16.98717295 -0.03292271 20.53114459 -0.04599392 24.07513428 -0.0574646 C31.81866886 -0.08028818 39.56217599 -0.08823164 47.30573964 -0.09329104 C52.14048053 -0.09654968 56.97521348 -0.10307296 61.80994987 -0.11029243 C75.1967102 -0.12985114 88.58346315 -0.14626088 101.97023869 -0.14916897 C102.82637741 -0.14935654 103.68251614 -0.14954411 104.56459847 -0.14973736 C106.30015496 -0.15010361 108.03571146 -0.15046731 109.77126796 -0.15082847 C110.63279064 -0.15101128 111.49431332 -0.1511941 112.38194275 -0.15138245 C113.24451647 -0.151563 114.10709019 -0.15174354 114.99580251 -0.15192956 C128.98567546 -0.15547442 142.9753948 -0.18251948 156.96521444 -0.21988034 C171.32902441 -0.25793324 185.69275807 -0.2773262 200.05661958 -0.27762848 C208.12133018 -0.27821356 216.18585727 -0.28673864 224.25052071 -0.31562614 C231.11422296 -0.3400992 237.97767474 -0.34745035 244.8414088 -0.33237862 C248.34393914 -0.32519406 251.84597442 -0.32613273 255.34844971 -0.34878922 C259.14346312 -0.36909342 262.93718262 -0.35878819 266.73217773 -0.34057617 C267.84189581 -0.35377614 268.95161389 -0.36697611 270.0949598 -0.38057607 C277.50446312 -0.29901466 277.50446312 -0.29901466 281.521842 2.58601284 C283.30259705 5.27415466 283.30259705 5.27415466 283.36509705 8.89915466 C282.18438831 12.64964123 281.59651766 13.34762247 278.30259705 15.27415466 C275.971304 15.64740884 275.971304 15.64740884 273.34218693 15.64494896 C272.3375717 15.65132201 271.33295647 15.65769505 270.29789835 15.66426122 C268.64543806 15.65187396 268.64543806 15.65187396 266.95959473 15.63923645 C265.78772533 15.64235545 264.61585593 15.64547445 263.40847534 15.64868796 C260.15478867 15.65443731 256.90144675 15.64677643 253.64779174 15.63359928 C250.1392058 15.62269931 246.63064888 15.62916079 243.12205505 15.63372803 C237.04176502 15.639477 230.96155467 15.63483905 224.88127327 15.62371445 C216.08473545 15.60807164 207.28830514 15.61361802 198.49176573 15.62533088 C184.21313255 15.64423075 169.93451399 15.65344279 155.65586853 15.65306091 C154.80113565 15.65304347 153.94640277 15.65302603 153.06576889 15.65300806 C143.52886427 15.65255581 133.99196489 15.64922738 124.45506287 15.64213562 C123.16896124 15.64118705 123.16896124 15.64118705 121.85687777 15.64021931 C121.00034687 15.63958674 120.14381597 15.63895418 119.26132959 15.63830245 C117.53411862 15.63703268 115.80690764 15.63576727 114.07969666 15.63450623 C113.22630683 15.63387803 112.37291701 15.63324984 111.49366689 15.63260262 C97.27001484 15.62265293 83.04644993 15.63196347 68.82281631 15.65669024 C60.04722756 15.6711368 51.27194508 15.66902737 42.49637388 15.64572825 C36.48462728 15.63099664 30.47306044 15.63411512 24.46132106 15.65135716 C20.99121337 15.66070869 17.52160427 15.66180141 14.05153465 15.64112663 C10.29143659 15.62287761 6.53264329 15.63511381 2.77258301 15.65510559 C1.1234688 15.63602616 1.1234688 15.63602616 -0.55896086 15.61656129 C-5.18545086 15.66979109 -7.90402878 15.77398568 -11.8743248 18.27698994 C-14.23821615 22.16325875 -14.39543541 25.42825731 -14.3366394 29.84783936 C-14.34499313 30.70758362 -14.35334686 31.56732788 -14.36195374 32.453125 C-14.38394605 35.34220152 -14.37022109 38.23001162 -14.35682678 41.11912537 C-14.36531766 43.22232865 -14.37599715 45.32552405 -14.38868999 47.42870617 C-14.41664877 53.06400443 -14.41462901 58.69892026 -14.40644073 64.33426666 C-14.40328886 69.62109114 -14.4271173 74.90765903 -14.44874573 80.19444275 C-14.49626619 95.65845381 -14.50043154 111.12257349 -14.50990295 126.58665466 C-14.57177795 161.13352966 -14.63365295 195.68040466 -14.69740295 231.27415466 C104.76259705 231.27415466 224.22259705 231.27415466 347.30259705 231.27415466 C347.30259705 191.01415466 347.30259705 150.75415466 347.30259705 109.27415466 C351.30259705 104.27415466 351.30259705 104.27415466 354.80259705 103.71165466 C358.86546076 104.3646149 359.79865886 105.10663911 362.30259705 108.27415466 C362.77688599 110.69439411 362.77688599 110.69439411 362.74082947 113.44390869 C362.73568581 115.01309555 362.73568581 115.01309555 362.73043823 116.61398315 C362.70655533 117.75714493 362.68267242 118.9003067 362.6580658 120.07810974 C362.64912796 121.28710938 362.64019012 122.49610901 362.63098145 123.741745 C362.61014523 126.37488621 362.58231459 129.00697667 362.54393005 131.63982582 C362.48505909 135.83668204 362.46570978 140.03315761 362.45396423 144.2303772 C362.41573331 156.16768048 362.3465456 168.10413254 362.18980408 180.04051208 C360.61285464 223.91476109 360.61285464 223.91476109 373.65422058 265.06892395 C376.5903176 270.77809812 378.74836541 276.79784053 381.0330658 282.78977966 C381.94257012 285.09210821 382.8559235 287.39292031 383.77330017 289.69212341 C384.21939636 290.81409119 384.66549255 291.93605896 385.12510681 293.09202576 C385.57555359 294.2246283 386.02600037 295.35723083 386.49009705 296.52415466 C387.89769898 300.06524001 389.30489845 303.60648354 390.71112061 307.14811707 C391.57167547 309.3153227 392.43303323 311.48220974 393.2953186 313.64872742 C393.67694656 314.60954224 394.05857452 315.57035706 394.45176697 316.56028748 C394.78641464 317.4016626 395.12106232 318.24303772 395.46585083 319.10990906 C398.44072762 326.80443328 398.63460653 335.79514566 396.27915955 343.71556091 C392.46254354 351.97083807 386.69954505 358.76474438 378.11509705 362.21165466 C372.41720306 363.79959233 367.19466205 364.3993744 361.28282547 364.40278912 C360.5967954 364.40454215 359.91076533 364.40629519 359.20394647 364.40810135 C356.90626362 364.41275147 354.60864433 364.4102984 352.31095886 364.40786743 C350.64648759 364.4097359 348.98201675 364.41203675 347.31754661 364.41473275 C342.74416801 364.42085273 338.17080769 364.42071692 333.59742594 364.41953838 C328.66477584 364.41933442 323.73213162 364.42485267 318.79948425 364.42959595 C309.13546763 364.43790425 299.47145711 364.44065087 289.80743721 364.44120833 C281.95201994 364.44168342 274.09660468 364.44373784 266.24118805 364.44690895 C243.97093107 364.45571617 221.70067892 364.46032824 199.43042019 364.45957848 C197.62933035 364.45951854 197.62933035 364.45951854 195.79185486 364.4594574 C193.98856648 364.45939608 193.98856648 364.45939608 192.14884803 364.45933352 C172.66586609 364.45892707 153.18290347 364.46849604 133.69992712 364.48259576 C113.69620799 364.49695813 93.69249829 364.50386602 73.68877387 364.50300199 C62.45772724 364.50266996 51.22670086 364.50541955 39.99565887 364.51618004 C30.43307558 364.52528322 20.87052173 364.52746179 11.30793598 364.52067062 C6.42979294 364.51740445 1.5517064 364.51735226 -3.32643127 364.52602386 C-7.79490428 364.53388547 -12.26327594 364.53246086 -16.73174646 364.52373973 C-18.34546294 364.522204 -19.95918697 364.52402367 -21.57289454 364.52959981 C-35.20922726 364.57358676 -46.09345319 364.28406781 -56.4513092 354.64134216 C-62.53007491 348.0902914 -65.70734372 340.2009644 -65.69740295 331.27415466 C-64.76115456 323.42793107 -62.00547022 316.31794466 -59.0763092 309.03196716 C-58.38721718 307.28833389 -58.38721718 307.28833389 -57.6842041 305.50947571 C-56.4630898 302.42389741 -55.23487627 299.34135329 -54.00288391 296.26011658 C-52.79180719 293.22670416 -51.58973571 290.18973126 -50.38685608 287.15306091 C-49.009416 283.67699129 -47.6311363 280.20129716 -46.24661255 276.7280426 C-45.57119745 275.03351032 -44.89764878 273.33797897 -44.25684547 271.63005733 C-42.71075195 267.56970438 -40.92798451 263.75096422 -38.92489624 259.89389038 C-27.99818318 237.58065533 -29.2324234 214.85173339 -29.51186681 190.50903726 C-29.56814761 184.47424874 -29.55758954 178.43956809 -29.55371094 172.40457153 C-29.55552119 161.01187358 -29.60948396 149.62012839 -29.68597835 138.22770995 C-29.82170983 117.78550502 -29.87141421 97.34301131 -29.8954162 76.90039891 C-29.90596497 69.73894368 -29.94093977 62.57814674 -29.99657929 55.41690409 C-30.02790864 50.97189517 -30.04327345 46.52692468 -30.05500793 42.08182526 C-30.0640359 40.02630232 -30.08001535 37.97079603 -30.10355949 35.91538811 C-30.13497683 33.10403103 -30.14153602 30.2936255 -30.1423645 27.4821167 C-30.15762824 26.67531395 -30.17289197 25.8685112 -30.18861824 25.03725988 C-30.14676385 18.18538319 -28.15802483 12.25778321 -23.76771545 6.93431091 C-22.80478577 6.14347107 -22.80478577 6.14347107 -21.82240295 5.33665466 C-21.18560608 4.79138123 -20.5488092 4.24610779 -19.89271545 3.68431091 C-13.6247241 -0.34192552 -7.19007628 -0.01567931 0 0 Z M-17.69740295 246.27415466 C-23.96740295 262.11415466 -30.23740295 277.95415466 -36.69740295 294.27415466 C-39.33740295 300.87415466 -41.97740295 307.47415466 -44.69740295 314.27415466 C-44.69740295 314.93415466 -44.69740295 315.59415466 -44.69740295 316.27415466 C-27.60787981 316.50793419 -10.51885676 316.68418239 6.57190037 316.79227638 C14.50782334 316.84380469 22.44275191 316.91402985 30.3780365 317.02854919 C37.29590698 317.12833782 44.2130573 317.19276295 51.1316275 317.21503961 C54.79420041 317.22805945 58.4547135 317.25856551 62.11662483 317.33145523 C66.20891579 317.41224806 70.29764573 317.41404732 74.39073181 317.40940857 C75.59986237 317.44536133 76.80899292 317.48131409 78.05476379 317.51835632 C84.41152557 317.48606089 84.41152557 317.48606089 89.5551281 314.12772751 C91.36331406 311.58110256 92.85570323 309.03904203 94.30259705 306.27415466 C95.22577914 304.7871712 96.15753981 303.3054244 97.1033783 301.83274841 C98.38095034 299.74663615 99.64920206 297.65518907 100.91392517 295.56126404 C104.09262465 290.37914086 104.09262465 290.37914086 106.30259705 289.27415466 C107.88989472 289.17313612 109.48136356 289.13472606 111.07185364 289.12698364 C112.5818544 289.11625069 112.5818544 289.11625069 114.12236023 289.1053009 C115.23097412 289.102612 116.33958801 289.0999231 117.48179626 289.09715271 C118.64609161 289.09058151 119.81038696 289.08401031 121.00996399 289.07723999 C124.87573809 289.0574745 128.74147334 289.04583834 132.60728455 289.03587341 C133.92436527 289.03179789 135.241446 289.02772236 136.59843826 289.02352333 C142.84762245 289.00447264 149.09679482 288.99024054 155.34600246 288.98191136 C162.5624053 288.97213447 169.77850177 288.94580309 176.99479663 288.90541047 C182.5710768 288.87526738 188.14726905 288.86044429 193.72362912 288.85713035 C197.05500912 288.854778 200.38598644 288.84382881 203.7172966 288.82066917 C207.43331843 288.79643692 211.14853286 288.79721385 214.86460876 288.80418396 C215.96917419 288.7913739 217.07373962 288.77856384 218.21177673 288.7653656 C219.73023697 288.77578133 219.73023697 288.77578133 221.27937317 288.78640747 C222.15800962 288.78401912 223.03664608 288.78163076 223.94190788 288.77917004 C227.78323524 289.58461195 229.55012847 292.18493804 231.70298767 295.30125427 C232.11742126 296.00258484 232.53185486 296.70391541 232.95884705 297.42649841 C233.42419861 298.20315857 233.88955017 298.97981873 234.3690033 299.78001404 C234.84208923 300.58245544 235.31517517 301.38489685 235.80259705 302.21165466 C236.74716303 303.80609233 237.69500391 305.39859513 238.64634705 306.98899841 C239.06078064 307.69145691 239.47521423 308.39391541 239.90220642 309.11766052 C240.36433533 309.82930359 240.82646423 310.54094666 241.30259705 311.27415466 C241.73219727 312.13192505 242.16179749 312.98969543 242.60441589 313.87345886 C247.06630812 317.84340948 252.11274668 316.92667631 257.87388611 316.84178162 C259.80596924 316.84287682 259.80596924 316.84287682 261.77708435 316.84399414 C265.30600971 316.84542862 268.83408515 316.81603525 272.362813 316.78112435 C276.05166119 316.74986538 279.74052893 316.74693051 283.42948914 316.74099731 C290.41357258 316.7254574 297.39726465 316.68442734 304.38117576 316.63424987 C312.33269428 316.57836067 320.2842315 316.55087104 328.23589754 316.52577269 C344.59169315 316.47351128 360.94709515 316.38556661 377.30259705 316.27415466 C375.08342911 309.49698056 375.08342911 309.49698056 372.620224 302.80613708 C372.32594009 302.05051987 372.03165619 301.29490265 371.72845459 300.51638794 C371.41905441 299.72875565 371.10965424 298.94112335 370.7908783 298.12962341 C370.29300056 296.85481865 370.29300056 296.85481865 369.7850647 295.55426025 C369.08435544 293.7613446 368.38258249 291.96884433 367.67979431 290.17674255 C366.6331289 287.50763776 365.5896219 284.83731692 364.54673767 282.16673279 C363.85747327 280.40428918 363.16802537 278.64191732 362.4783783 276.87962341 C362.17909927 276.11425766 361.87982025 275.34889191 361.57147217 274.56033325 C357.86455041 265.11154484 354.07242714 255.6987299 350.30259705 246.27415466 C228.86259705 246.27415466 107.42259705 246.27415466 -17.69740295 246.27415466 Z M108.32164001 308.73387146 C107.14495901 311.39432434 106.30259705 313.37000205 106.30259705 316.27415466 C145.90259705 316.27415466 185.50259705 316.27415466 226.30259705 316.27415466 C223.67736334 309.23883699 223.67736334 309.23883699 219.30259705 303.27415466 C215.92047185 302.08181242 212.67555425 302.1489146 209.11558533 302.19139099 C208.09222076 302.17255356 207.0688562 302.15371613 206.01448059 302.13430786 C202.63296485 302.08382094 199.25473274 302.09251043 195.87290955 302.10618591 C193.5202676 302.09317646 191.16763564 302.07823101 188.8150177 302.06143188 C183.88357074 302.03609682 178.95327357 302.04125303 174.02183533 302.06639099 C167.70648077 302.09515721 161.39527814 302.03784902 155.08050728 301.95621204 C150.22118909 301.90474018 145.36286663 301.90446423 140.50333786 301.91899681 C138.17570938 301.91879037 135.84801639 301.9014623 133.52064896 301.86660194 C119.10286098 300.89443227 119.10286098 300.89443227 108.32164001 308.73387146 Z M-49.69740295 331.27415466 C-49.69740295 337.86660498 -48.69024709 340.34310124 -44.69740295 345.27415466 C-39.63060105 349.10515123 -35.14306531 349.39922956 -28.9153471 349.40558243 C-27.88841534 349.40866138 -27.88841534 349.40866138 -26.84073749 349.41180253 C-24.53583584 349.4174782 -22.23099384 349.41601458 -19.92608643 349.41459656 C-18.26120301 349.41717986 -16.59632021 349.42019292 -14.93143827 349.42359996 C-10.34775103 349.43167717 -5.76407945 349.43345993 -1.18038595 349.43419743 C3.7597417 349.4360467 8.69986119 349.44359336 13.63998413 349.45033264 C24.44565667 349.46392117 35.2513255 349.46994137 46.05700517 349.4743433 C52.80169329 349.4771046 59.54637997 349.48134172 66.29106712 349.48584747 C84.95858196 349.49804035 103.62609565 349.50833993 122.29361439 349.51172256 C123.48862792 349.51194213 124.68364144 349.5121617 125.9148675 349.51238792 C127.11276587 349.51260619 128.31066425 349.51282447 129.54486257 349.51304936 C131.9723268 349.51349283 134.39979102 349.5139394 136.82725525 349.51438904 C138.03136544 349.51461047 139.23547563 349.5148319 140.476074 349.51506004 C159.99355136 349.51900933 179.5109914 349.53646726 199.02845434 349.55974856 C219.05808607 349.58344834 239.08769906 349.59592377 259.11734504 349.59709048 C270.36678231 349.59800797 281.61617096 349.6037788 292.86559486 349.6219101 C302.44332641 349.63729248 312.0209943 349.64244253 321.59873585 349.63417199 C326.48664697 349.63025901 331.37442985 349.63122669 336.26232529 349.64522934 C340.73631295 349.65792923 345.2100755 349.65680526 349.68406268 349.64463863 C351.3031708 349.64267484 352.92229465 349.64579141 354.54138062 349.65448299 C356.74219976 349.66555009 358.9422208 349.65810555 361.14301777 349.64609146 C362.36544754 349.64668855 363.58787732 349.64728564 364.84735042 349.64790082 C371.42653883 348.936245 375.96551133 346.35474079 380.30259705 341.27415466 C382.80345499 337.58241198 382.30259705 336.29041705 382.30259705 331.27415466 C239.74259705 331.27415466 97.18259705 331.27415466 -49.69740295 331.27415466 Z " fill="#FFB624" transform="translate(68.69740295410156,111.72584533691406)"/>
<path d="M0 0 C2.40572785 1.63245818 2.99513324 2.98837385 4.125 5.6875 C3.92599294 10.96118719 0.62272031 13.41602536 -3 17 C-4.22396484 18.24330078 -4.22396484 18.24330078 -5.47265625 19.51171875 C-7.6321726 21.69176933 -9.80797558 23.85271078 -12 26 C-11.690625 26.7425 -11.38125 27.485 -11.0625 28.25 C-10.1905075 30.50692176 -9.52332993 32.6450153 -9 35 C-8.28457031 35.01417969 -7.56914062 35.02835938 -6.83203125 35.04296875 C6.76795502 35.69393834 17.84256022 40.40800138 27.1875 50.3203125 C37.14803767 62.00197249 38.76823153 73.87751586 38.20117188 88.69628906 C37.72085243 94.19664619 35.45977235 98.93123413 33.12109375 103.84765625 C32.91555126 107.50100817 35.07723611 109.97019024 37 113 C37.57443848 112.84329834 38.14887695 112.68659668 38.74072266 112.52514648 C41.36560729 111.81669737 43.99507383 111.1269869 46.625 110.4375 C47.98044922 110.0672168 47.98044922 110.0672168 49.36328125 109.68945312 C54.87620393 108.26092206 59.6317048 107.09129938 64.875 110.0625 C66.66463689 113.14465242 66.71245619 116.53550716 66 120 C62.5647157 124.2549982 57.50550535 124.83625433 52.4375 126.1875 C51.48552734 126.46013672 50.53355469 126.73277344 49.55273438 127.01367188 C42.55692235 128.91382776 35.20608267 130.49549606 28.1875 128 C25.03934646 125.12168819 23.06738399 121.70369642 21 118 C14.51600965 121.40750092 14.51600965 121.40750092 10.9375 127.375 C10.958125 128.24125 10.97875 129.1075 11 130 C12.7325 130.1546875 12.7325 130.1546875 14.5 130.3125 C19.05030062 130.88736004 22.81074676 132.12205889 27 134 C29.32749345 137.49124017 29.50299316 138.89222251 29 143 C27.5625 145.375 27.5625 145.375 25 147 C17.1406106 148.01411476 9.26035109 146.06022045 2 143 C-1.65807525 139.85455298 -3.58111758 137.88696159 -4 133 C-4.66 133.33 -5.32 133.66 -6 134 C-5.34 134.969375 -4.68 135.93875 -4 136.9375 C-1.6109874 141.15240081 -0.90696912 145.25013787 -2 150 C-5.10363483 155.61837485 -9.57620535 159.84101045 -14.125 164.3125 C-14.85332031 165.04017578 -15.58164062 165.76785156 -16.33203125 166.51757812 C-22.72957814 172.86191067 -22.72957814 172.86191067 -26.875 173.3125 C-30 173 -30 173 -32.375 171.5 C-34.21080598 168.67568311 -34.59534326 166.55292801 -34.52587891 163.19726562 C-33.45484947 158.72221228 -29.79926663 155.99014615 -26.5 153 C-25.78457031 152.32066406 -25.06914062 151.64132813 -24.33203125 150.94140625 C-22.57141474 149.27468929 -20.79499749 147.62950126 -19 146 C-19.309375 145.071875 -19.61875 144.14375 -19.9375 143.1875 C-20.625 141.125 -21.3125 139.0625 -22 137 C-35.7579302 134.31214041 -35.7579302 134.31214041 -48.45703125 138.7109375 C-52.88237168 140.95419763 -57.89131821 140.82604338 -62.77734375 141.0546875 C-63.84082031 141.36664063 -64.90429688 141.67859375 -66 142 C-66.71877734 143.68193898 -67.42554495 145.37275831 -68.00854492 147.10644531 C-70.08186322 151.06622288 -74.39918245 152.84829055 -78.1875 154.9375 C-79.4259668 155.67709961 -79.4259668 155.67709961 -80.68945312 156.43164062 C-86.08684632 159.49824464 -89.79737131 160.66924915 -96 160 C-98 159 -98 159 -99 157 C-99.89275362 152.04927536 -99.89275362 152.04927536 -99 149 C-95.01985001 144.47231615 -89.13409603 141.86074628 -83.78515625 139.2734375 C-81.87064397 138.12321372 -81.87064397 138.12321372 -81.07421875 136.0859375 C-80.97312923 133.24479005 -81.90706012 132.37376881 -83.75 130.25 C-86.9177978 126.33077109 -88.4630327 122.78167604 -90 118 C-96.20566299 118.66355734 -100.48913256 121.37273676 -105.78125 124.50390625 C-109.21999444 126.1022547 -111.26055232 126.42614788 -115 126 C-117.375 124.4375 -117.375 124.4375 -119 122 C-119.625 118.5625 -119.625 118.5625 -119 115 C-114.80940469 111.02759802 -110.16273756 108.02523436 -105.1875 105.125 C-104.52685547 104.70992188 -103.86621094 104.29484375 -103.18554688 103.8671875 C-97.85976801 100.7738019 -93.97154518 100.70768303 -88 102 C-87.773125 101.319375 -87.54625 100.63875 -87.3125 99.9375 C-84.40064956 93.42050139 -81.73114369 90.26692671 -75.5 86.9375 C-68.33150243 82.71562205 -66.97899107 76.6469752 -65 69 C-64.505 67.515 -64.505 67.515 -64 66 C-64.95093297 64.30485863 -65.95107762 62.63631892 -67 61 C-67 60.34 -67 59.68 -67 59 C-67.86165771 59.22719727 -67.86165771 59.22719727 -68.74072266 59.45898438 C-71.36690162 60.14688134 -73.99585877 60.82351721 -76.625 61.5 C-77.52863281 61.73847656 -78.43226563 61.97695312 -79.36328125 62.22265625 C-88.22041207 64.4854269 -88.22041207 64.4854269 -93 64 C-95.375 62.4375 -95.375 62.4375 -97 60 C-97.5 56.5 -97.5 56.5 -97 53 C-94.28829229 49.65024342 -91.99323502 48.36507519 -87.859375 47.296875 C-86.87066406 47.0390625 -85.88195312 46.78125 -84.86328125 46.515625 C-83.83589844 46.26296875 -82.80851562 46.0103125 -81.75 45.75 C-80.73808594 45.481875 -79.72617187 45.21375 -78.68359375 44.9375 C-64.96541825 41.45012983 -64.96541825 41.45012983 -59.7578125 44.171875 C-59.21898437 44.69265625 -58.68015625 45.2134375 -58.125 45.75 C-57.29355469 46.51570313 -57.29355469 46.51570313 -56.4453125 47.296875 C-54.9201549 49.09408774 -54.0491531 50.9016938 -53 53 C-52.34 53.33 -51.68 53.66 -51 54 C-51.99 52.7934375 -51.99 52.7934375 -53 51.5625 C-56.43179628 46.2677286 -55.42732732 41.1061132 -54.234375 35.2265625 C-51.42083141 23.37379239 -51.42083141 23.37379239 -47 20 C-43.5 19.4375 -43.5 19.4375 -40 20 C-37.5 21.9375 -37.5 21.9375 -36 25 C-35.77361288 30.50532323 -37.34099684 35.80179008 -39 41 C-36.89483819 42.41245546 -36.89483819 42.41245546 -34 43 C-31.44674702 41.93705777 -29.34343424 40.50333517 -27 39 C-26.34 39 -25.68 39 -25 39 C-25.28875 38.43152344 -25.5775 37.86304688 -25.875 37.27734375 C-28.24163801 32.35506538 -29.75049869 28.5751331 -29 23 C-27.07857188 19.32416021 -24.79408192 16.53761175 -21.875 13.609375 C-21.08609375 12.81789063 -20.2971875 12.02640625 -19.484375 11.2109375 C-18.66453125 10.39882813 -17.8446875 9.58671875 -17 8.75 C-16.18015625 7.92242187 -15.3603125 7.09484375 -14.515625 6.2421875 C-13.72671875 5.45585938 -12.9378125 4.66953125 -12.125 3.859375 C-11.40570313 3.14233398 -10.68640625 2.42529297 -9.9453125 1.68652344 C-6.56453409 -1.24450282 -4.12798494 -1.23839548 0 0 Z M-31.6875 58.75 C-32.58533203 59.25015625 -33.48316406 59.7503125 -34.40820312 60.265625 C-43.92773108 65.73325132 -51.04713942 72.10633866 -54 83 C-54.52499915 87.99993265 -54.30430238 92.98915413 -54 98 C-50.02489967 97.41086447 -47.19302975 96.17954805 -43.73828125 94.1484375 C-42.71412109 93.551521 -41.68996094 92.95460449 -40.63476562 92.33959961 C-39.53841797 91.69128174 -38.44207031 91.04296387 -37.3125 90.375 C-35.57280608 89.35808639 -33.83310519 88.34118449 -32.09298706 87.32499695 C-30.28035899 86.2654057 -28.46948369 85.20286157 -26.65869141 84.14013672 C-23.06755003 82.03570275 -19.46375393 79.95377863 -15.85546875 77.87890625 C-14.98792717 77.37991821 -14.98792717 77.37991821 -14.1028595 76.87084961 C-12.40202806 75.89285467 -10.70101566 74.91517448 -9 73.9375 C-5.94418412 72.18057521 -2.89002889 70.42136258 0.15625 68.64794922 C2.08502929 67.53022427 4.0229363 66.4281315 5.96875 65.34033203 C6.8865625 64.81681152 7.804375 64.29329102 8.75 63.75390625 C9.97976563 63.06470093 9.97976563 63.06470093 11.234375 62.36157227 C11.81703125 61.91225342 12.3996875 61.46293457 13 61 C13 60.01 13 59.02 13 58 C11.64001833 56.60343376 11.64001833 56.60343376 9.8125 55.4375 C9.22082031 55.02371094 8.62914062 54.60992187 8.01953125 54.18359375 C3.89404018 51.76575276 0.0601102 50.66289488 -4.6875 50.1875 C-5.64011719 50.07792969 -6.59273437 49.96835938 -7.57421875 49.85546875 C-16.55331044 50.23429018 -24.06350719 54.31422236 -31.6875 58.75 Z M21 73 C18.85731183 73.94838352 18.85731183 73.94838352 16.46875 75.4375 C15.05432617 76.27438354 15.05432617 76.27438354 13.61132812 77.12817383 C12.58458984 77.74587646 11.55785156 78.3635791 10.5 79 C8.31292761 80.29629465 6.12541205 81.59184181 3.9375 82.88671875 C3.37067505 83.22362228 2.8038501 83.56052582 2.21984863 83.90763855 C-3.98860868 87.59708975 -10.24184204 91.20810625 -16.5 94.8125 C-17.58522949 95.43842041 -18.67045898 96.06434082 -19.78857422 96.70922852 C-28.15973513 101.53148162 -36.56162463 106.29643427 -45 111 C-42.84467301 116.22166847 -39.04620011 117.89925294 -34 120 C-23.38179489 123.24242302 -14.98445467 121.70308603 -5.30078125 116.58984375 C6.99832765 109.77683954 18.62449282 103.19608996 23 89 C23.61992843 83.9968129 23.37021476 79.01846673 23 74 C22.01 73.505 22.01 73.505 21 73 Z M-72.0625 102.9375 C-74.59410591 106.93907062 -75.20792816 110.29250642 -75 115 C-73.38944896 119.74217807 -71.12544386 122.2153254 -67 125 C-63.47940432 126.17353189 -60.693507 126.20146402 -57 126 C-56.34 125.34 -55.68 124.68 -55 124 C-55.51949219 123.42894531 -56.03898437 122.85789062 -56.57421875 122.26953125 C-62.23367818 115.68949431 -65.31927447 109.22261004 -68 101 C-70.22868529 100.77177485 -70.22868529 100.77177485 -72.0625 102.9375 Z " fill="#FFB724" transform="translate(442,37)"/>
<path d="M0 0 C19.08750959 16.33566466 31.28060537 40.80890774 33.3125 65.8125 C34.89056892 92.37241804 27.80008098 117.79559837 10.50390625 138.375 C-9.140999 160.2260176 -32.67396972 172.09462536 -62 174.03125 C-89.6682445 174.79981235 -114.10589436 164.79122421 -134.4296875 146.3203125 C-153.43570417 128.15666776 -164.23548067 103.66027339 -164.97290039 77.35131836 C-165.18517141 59.42302252 -161.23811984 42.64698119 -152.6875 26.8125 C-153.780625 26.709375 -154.87375 26.60625 -156 26.5 C-159.6875 25.8125 -159.6875 25.8125 -161.625 24.75 C-163.02690212 22.19359026 -163.14811897 19.7266148 -163.28125 16.84765625 C-162.30284146 13.49403223 -160.65223147 12.66996558 -157.6875 10.8125 C-153.79450436 9.18643944 -149.82340613 7.8656825 -145.8125 6.5625 C-144.74902344 6.19898438 -143.68554688 5.83546875 -142.58984375 5.4609375 C-137.15284498 3.66436399 -132.42655704 2.12319355 -126.6875 2.8125 C-124.25 4.625 -124.25 4.625 -122.6875 7.8125 C-122.21037178 11.50001953 -122.47784283 15.10855662 -122.6875 18.8125 C-122.74560822 20.41268489 -122.80142685 22.01295387 -122.85546875 23.61328125 C-122.92285789 25.32558541 -122.99187648 27.03782619 -123.0625 28.75 C-123.108302 29.99354248 -123.108302 29.99354248 -123.1550293 31.26220703 C-123.194104 32.05095215 -123.23317871 32.83969727 -123.2734375 33.65234375 C-123.3048584 34.35738037 -123.3362793 35.06241699 -123.36865234 35.78881836 C-123.73869576 38.13743234 -124.45208851 39.78650199 -125.6875 41.8125 C-128.90351485 43.42050743 -132.22349607 43.57239019 -135.6875 42.8125 C-138.1875 39.8125 -138.1875 39.8125 -139.6875 36.8125 C-149.91259997 57.34353076 -151.46487355 79.35876471 -144.62109375 101.21875 C-136.79958806 122.90213212 -122.07974524 139.93730399 -101.421875 150.125 C-80.65957454 159.80978824 -57.33327577 160.3079242 -35.9375 152.5625 C-13.66048779 143.28955649 1.7367285 127.82131678 11.48730469 105.82177734 C20.04776858 84.97780758 19.19880188 62.53614968 10.68359375 41.8671875 C0.718617 19.66601424 -16.04950446 4.65435493 -38.58203125 -4.15625 C-56.20147283 -10.00723438 -76.82367955 -10.65579318 -94.1875 -3.4375 C-98.26198527 -1.98232669 -100.55150504 -1.97103089 -104.6875 -3.1875 C-107.2756216 -5.44167042 -107.62992643 -6.79270979 -108.125 -10.1875 C-107.56950531 -13.99660643 -106.65731226 -14.78314 -103.6875 -17.1875 C-101.15862504 -18.21841524 -98.79441814 -19.06182803 -96.1875 -19.8125 C-95.47045898 -20.02414795 -94.75341797 -20.2357959 -94.01464844 -20.45385742 C-60.36749203 -30.12046455 -26.79896907 -21.93981534 0 0 Z " fill="#FFB724" transform="translate(300.6875,160.1875)"/>
<path d="M0 0 C6.33077505 6.69388683 8.48555491 14.0006609 8.50390625 23.09375 C8.44045292 25.21943651 8.3640734 27.34497208 8.25390625 29.46875 C9.40890625 29.38625 10.56390625 29.30375 11.75390625 29.21875 C16.63124524 29.23604553 20.30844563 30.6168206 24.25390625 33.46875 C28.63150438 38.85656308 29.37320663 42.90488564 29.41503906 49.68676758 C29.42464661 50.94519974 29.43425415 52.2036319 29.44415283 53.50019836 C29.44900145 54.87122414 29.45328012 56.24225203 29.45703125 57.61328125 C29.46278812 59.02569072 29.46854578 60.43810018 29.4743042 61.85050964 C29.48479697 64.81025556 29.49065078 67.76997445 29.49414062 70.72973633 C29.4996193 74.50911157 29.52364084 78.28812547 29.55211258 82.06738758 C29.57080269 84.98517375 29.57594795 87.902874 29.5774765 90.82071495 C29.58048961 92.21328391 29.58847253 93.60585183 29.60166168 94.99836159 C29.73721934 110.41161967 29.73721934 110.41161967 24.5703125 116.4296875 C23.99152344 116.89632812 23.41273438 117.36296875 22.81640625 117.84375 C22.24019531 118.32585937 21.66398437 118.80796875 21.0703125 119.3046875 C17.03939651 121.88794119 12.79637789 121.60501564 8.11791992 121.62988281 C7.0512635 121.63733017 7.0512635 121.63733017 5.96305847 121.64492798 C3.61598738 121.65950469 1.26898388 121.66634423 -1.078125 121.671875 C-2.71473695 121.67763034 -4.35134888 121.68338803 -5.98796082 121.68914795 C-9.41849073 121.69964529 -12.8489973 121.70549618 -16.27954102 121.70898438 C-20.6642359 121.71446512 -25.04861964 121.73848938 -29.43321705 121.76695633 C-32.81423327 121.78562794 -36.19517522 121.79079072 -39.57623863 121.79232025 C-41.19209175 121.79533732 -42.80794386 121.8033338 -44.42374611 121.81650543 C-46.69004262 121.83366048 -48.95558781 121.83166305 -51.22192383 121.82519531 C-53.15241325 121.83066376 -53.15241325 121.83066376 -55.12190247 121.83624268 C-59.97808366 121.34382633 -63.9350668 120.02363569 -67.70703125 116.78515625 C-68.17367187 116.20636719 -68.6403125 115.62757813 -69.12109375 115.03125 C-69.60320312 114.45503906 -70.0853125 113.87882812 -70.58203125 113.28515625 C-73.00082666 109.5108614 -72.88015733 105.63920129 -72.90722656 101.25073242 C-72.91683411 99.99230026 -72.92644165 98.7338681 -72.93634033 97.43730164 C-72.94118895 96.06627586 -72.94546762 94.69524797 -72.94921875 93.32421875 C-72.95497562 91.91180928 -72.96073328 90.49939982 -72.9664917 89.08699036 C-72.97698447 86.12724444 -72.98283828 83.16752555 -72.98632812 80.20776367 C-72.9918068 76.42838843 -73.01582834 72.64937453 -73.04430008 68.87011242 C-73.06299019 65.95232625 -73.06813545 63.034626 -73.069664 60.11678505 C-73.07267711 58.72421609 -73.08066003 57.33164817 -73.09384918 55.93913841 C-73.2288163 40.59302671 -73.2288163 40.59302671 -67.37109375 33.65625 C-62.22142496 29.36485934 -58.21660493 29.24941064 -51.74609375 29.46875 C-51.7925 28.57414062 -51.83890625 27.67953125 -51.88671875 26.7578125 C-52.19976142 16.27088301 -50.8832178 7.84582543 -43.5 0 C-30.85564421 -11.03917031 -12.66336855 -11.10523595 0 0 Z M-32.33203125 10.9375 C-38.04837005 17.67815385 -36.74609375 18.88973514 -36.74609375 29.46875 C-26.84609375 29.46875 -16.94609375 29.46875 -6.74609375 29.46875 C-5.92405626 18.73245566 -5.92405626 18.73245566 -10.74609375 11.46875 C-17.62672271 5.93433106 -25.47195518 4.5843261 -32.33203125 10.9375 Z M-57.74609375 45.46875 C-57.84519935 47.33510788 -57.87408636 49.20523194 -57.87548828 51.07421875 C-57.87864044 52.27216064 -57.8817926 53.47010254 -57.88504028 54.7043457 C-57.88301605 56.00847412 -57.88099182 57.31260254 -57.87890625 58.65625 C-57.87957935 59.99764015 -57.88054943 61.33903019 -57.88180542 62.68041992 C-57.88328211 65.49496621 -57.88112879 68.30948082 -57.87646484 71.12402344 C-57.87076756 74.73915631 -57.87404672 78.35421495 -57.88003731 81.96934509 C-57.88364372 84.74019942 -57.88250397 87.51103602 -57.87990952 90.28189087 C-57.87891408 92.26564583 -57.88196116 94.24940147 -57.88504028 96.2331543 C-57.88188812 97.43109619 -57.87873596 98.62903809 -57.87548828 99.86328125 C-57.87469269 100.92393799 -57.87389709 101.98459473 -57.87307739 103.07739258 C-58.01581654 105.42189943 -58.01581654 105.42189943 -56.74609375 106.46875 C-54.57346695 106.56831278 -52.39756269 106.59674719 -50.22265625 106.59814453 C-49.54136658 106.59989685 -48.8600769 106.60164917 -48.15814209 106.60345459 C-45.89576708 106.60787242 -43.63346962 106.60493538 -41.37109375 106.6015625 C-39.80550115 106.60223556 -38.23990865 106.6032056 -36.67431641 106.60446167 C-33.3889873 106.60593855 -30.10368533 106.60378441 -26.81835938 106.59912109 C-22.59788859 106.5934238 -18.37748139 106.59670286 -14.15701294 106.60269356 C-10.92292803 106.60629944 -7.6888583 106.60516046 -4.45477295 106.60256577 C-2.89817294 106.60189657 -1.34157157 106.60272466 0.21502686 106.60504532 C2.38687821 106.6075723 4.55862521 106.60373065 6.73046875 106.59814453 C8.58792725 106.59695114 8.58792725 106.59695114 10.48291016 106.59573364 C13.16245367 106.78486777 13.16245367 106.78486777 14.25390625 105.46875 C14.35301185 103.60239212 14.38189886 101.73226806 14.38330078 99.86328125 C14.38802902 98.06636841 14.38802902 98.06636841 14.39285278 96.2331543 C14.39082855 94.92902588 14.38880432 93.62489746 14.38671875 92.28125 C14.38739185 90.93985985 14.38836193 89.59846981 14.38961792 88.25708008 C14.39109461 85.44253379 14.38894129 82.62801918 14.38427734 79.81347656 C14.37858006 76.19834369 14.38185922 72.58328505 14.38784981 68.96815491 C14.39145622 66.19730058 14.39031647 63.42646398 14.38772202 60.65560913 C14.38672658 58.67185417 14.38977366 56.68809853 14.39285278 54.7043457 C14.38970062 53.50640381 14.38654846 52.30846191 14.38330078 51.07421875 C14.38250519 50.01356201 14.38170959 48.95290527 14.38088989 47.86010742 C14.52362904 45.51560057 14.52362904 45.51560057 13.25390625 44.46875 C11.08127945 44.36918722 8.90537519 44.34075281 6.73046875 44.33935547 C6.04917908 44.33760315 5.3678894 44.33585083 4.66595459 44.33404541 C2.40357958 44.32962758 0.14128212 44.33256462 -2.12109375 44.3359375 C-3.68668635 44.33526444 -5.25227885 44.3342944 -6.81787109 44.33303833 C-10.1032002 44.33156145 -13.38850217 44.33371559 -16.67382812 44.33837891 C-20.89429891 44.3440762 -25.11470611 44.34079714 -29.33517456 44.33480644 C-32.56925947 44.33120056 -35.8033292 44.33233954 -39.03741455 44.33493423 C-40.59401456 44.33560343 -42.15061593 44.33477534 -43.70721436 44.33245468 C-45.87906571 44.3299277 -48.05081271 44.33376935 -50.22265625 44.33935547 C-51.46096191 44.34015106 -52.69926758 44.34094666 -53.97509766 44.34176636 C-56.65464117 44.15263223 -56.65464117 44.15263223 -57.74609375 45.46875 Z " fill="#FFB724" transform="translate(256.74609375,172.53125)"/>
<path d="M0 0 C2 1 2 1 3 3 C3.74673125 9.68535806 3.74673125 9.68535806 2.00292969 12.75537109 C0.54608403 14.50999306 -0.98909675 16.09844339 -2.625 17.6875 C-3.20531982 18.27547363 -3.78563965 18.86344727 -4.38354492 19.46923828 C-5.61127837 20.70239618 -6.84909574 21.92558683 -8.09619141 23.13916016 C-9.99507384 24.99518502 -11.84745873 26.89005786 -13.69921875 28.79296875 C-14.90108931 29.98955249 -16.10543936 31.18365199 -17.3125 32.375 C-17.86180176 32.94049561 -18.41110352 33.50599121 -18.97705078 34.08862305 C-22.01047148 36.98037549 -24.02785795 38.35051822 -28.2980957 38.44116211 C-32 38 -32 38 -33.91796875 36.56640625 C-34.33691406 35.90511719 -34.75585938 35.24382812 -35.1875 34.5625 C-35.65800781 33.83160156 -36.12851563 33.10070312 -36.61328125 32.34765625 C-37.07089844 31.57292969 -37.52851563 30.79820312 -38 30 C-38.48855469 29.25621094 -38.97710937 28.51242187 -39.48046875 27.74609375 C-42.65166738 22.63842089 -43.93226283 19.00791601 -43 13 C-40.84154474 10.34343968 -39.41685537 10.07095411 -36.0625 9.5 C-31.98896737 10.16506655 -30.59736229 11.88316525 -28 15 C-27.67 15.66 -27.34 16.32 -27 17 C-23.85159761 15.62182167 -21.90213206 14.06910146 -19.609375 11.5234375 C-18.98160156 10.853125 -18.35382813 10.1828125 -17.70703125 9.4921875 C-16.40559896 8.08425077 -15.11637595 6.66492642 -13.83984375 5.234375 C-9.21991784 0.36040021 -6.73287145 -0.96803087 0 0 Z " fill="#FFB624" transform="translate(255,229)"/>
</svg>
