<?xml version="1.0" encoding="UTF-8"?>
<svg version="1.1" xmlns="http://www.w3.org/2000/svg" width="512" height="512">
<path d="M0 0 C1.65795093 -0.00417526 3.315899 -0.00965383 4.97384179 -0.01631981 C9.51995065 -0.03076801 14.06587812 -0.02653164 18.61199689 -0.019153 C23.51872282 -0.01442208 28.42540947 -0.02693053 33.3321228 -0.03717041 C42.9410711 -0.05436535 52.54995403 -0.05519695 62.15891372 -0.04995751 C69.96947589 -0.04591579 77.78001874 -0.04735939 85.59057999 -0.05270576 C87.25816609 -0.0538284 87.25816609 -0.0538284 88.95944081 -0.05497371 C91.21792523 -0.05650519 93.47640964 -0.05804354 95.73489405 -0.05958868 C116.91406331 -0.0733163 138.09319562 -0.06787424 159.27236404 -0.05640347 C178.64531632 -0.04647132 198.01817309 -0.05941099 217.39111064 -0.08333766 C237.28642047 -0.10772423 257.1816858 -0.11733758 277.07701027 -0.11068493 C288.24544879 -0.10719167 299.41381384 -0.10943186 310.58224106 -0.12693596 C320.08991272 -0.1416524 329.5974592 -0.14230065 339.10512839 -0.12486505 C343.95498941 -0.11634804 348.80462676 -0.11422269 353.65447617 -0.1295166 C358.09707538 -0.14335269 362.53925907 -0.13861439 366.98183419 -0.11927737 C368.58606802 -0.11551374 370.19033504 -0.11844981 371.79453932 -0.12888902 C382.20625678 -0.19180643 390.27248272 0.81363996 399.15628052 6.51268005 C406.29369406 14.14805268 407.55845513 21.76512988 407.26095581 31.92112732 C407.24602782 33.14996706 407.23109982 34.3788068 407.21571946 35.64488411 C407.17963945 38.32904785 407.13434315 41.01114029 407.07306099 43.69466209 C406.97345297 48.06632675 406.90973404 52.43811073 406.85066223 56.81048584 C406.77350279 62.35083622 406.68760286 67.89092934 406.59160218 73.43098539 C406.40241311 84.41052054 406.28760531 95.38982309 406.1993103 106.37059021 C406.18500066 108.11086539 406.17067696 109.85114045 406.15633941 111.59141541 C406.12749601 115.11690788 406.09902147 118.64240315 406.07072878 122.16790009 C405.99764824 131.23388564 405.92047144 140.29982516 405.83547974 149.3657074 C405.8269866 150.27460535 405.81849346 151.1835033 405.80974296 152.11994362 C405.68787731 164.85951198 405.49588064 177.59647675 405.25287193 190.33427882 C404.83453741 212.31023909 404.57386885 234.28248828 404.57815552 256.26268005 C404.57785095 257.11648191 404.57754639 257.97028378 404.5772326 258.84995842 C404.57914748 307.94941585 407.70882351 350.34884723 431.50343704 394.51335144 C431.86990798 395.19397392 432.23637891 395.87459641 432.61395502 396.57584381 C433.3318043 397.90520821 434.05400296 399.23223461 434.78086233 400.55669403 C440.74065942 411.59082362 442.28601151 421.53235692 442.11624146 434.0243988 C442.10062943 435.18954482 442.10062943 435.18954482 442.08470201 436.37822914 C441.89377167 444.37912064 441.36770666 450.62327913 436.84378052 457.38768005 C431.17116991 461.78684746 426.89310919 462.53536994 419.90694141 462.52190113 C419.08532704 462.52425336 418.26371267 462.52660559 417.41720089 462.5290291 C414.64025769 462.53573184 411.86336115 462.5352605 409.08641052 462.53485107 C407.08486919 462.5381489 405.08332853 462.5418743 403.08178872 462.54599255 C397.56284581 462.55602983 392.04391377 462.55973212 386.52496302 462.56238186 C380.58001722 462.56627978 374.63508006 462.57585844 368.69013977 462.58459473 C355.00331485 462.60343821 341.31648838 462.61361718 327.62965406 462.62205541 C320.86744903 462.62626082 314.1052449 462.63148295 307.34304062 462.63673994 C284.199459 462.65463067 261.05587712 462.66962715 237.91228962 462.67706013 C236.45911668 462.67753489 235.00594374 462.67801077 233.5527708 462.67848779 C232.47179646 462.67884235 232.47179646 462.67884235 231.36898426 462.67920408 C227.71776074 462.68040529 224.06653723 462.68162074 220.41531372 462.68284607 C219.6907149 462.68308622 218.96611609 462.68332637 218.21955973 462.6835738 C194.72362356 462.69146763 171.22773786 462.7149009 147.73182373 462.74740201 C122.89604522 462.78169385 98.06029625 462.80141066 73.22449368 462.80470437 C70.49847518 462.80512191 67.7724567 462.80560148 65.04643822 462.80612755 C64.37520597 462.80625074 63.70397372 462.80637393 63.0124011 462.80650086 C52.20666896 462.80883368 41.4009954 462.82449818 30.59528414 462.84496939 C19.73508102 462.86521753 8.87495168 462.87037586 -1.98526659 462.86119876 C-7.86974988 462.85664326 -13.75404283 462.85861297 -19.63850021 462.87796021 C-25.02425564 462.89551517 -30.40968078 462.89465654 -35.79543934 462.87906291 C-37.74501203 462.87667517 -39.69460714 462.88107044 -41.64414545 462.89289156 C-44.29322422 462.90796089 -46.94112515 462.8983726 -49.59017467 462.88266468 C-50.34801291 462.89288689 -51.10585114 462.90310909 -51.88665417 462.91364107 C-57.36631468 462.84267151 -61.56371286 461.40375225 -66.15621948 458.38768005 C-73.79689418 450.35517588 -72.40484406 437.33951118 -72.29176211 426.8366003 C-71.95277981 416.00285077 -69.20670843 408.00618463 -64.01657104 398.5947113 C-63.28151774 397.23525551 -62.54773385 395.87511267 -61.81514359 394.514328 C-61.4415426 393.82056061 -61.06794162 393.12679321 -60.6830194 392.41200256 C-60.11308993 391.35074661 -60.11308993 391.35074661 -59.53164673 390.26805115 C-58.95164803 389.18836563 -58.95164803 389.18836563 -58.35993218 388.08686829 C-35.95851154 345.84254775 -34.87396681 302.8761411 -34.89059448 256.26268005 C-34.89042824 255.41023775 -34.89026199 254.55779545 -34.8900907 253.67952156 C-34.89098666 231.66300867 -35.19672766 209.65432801 -35.61666822 187.64227867 C-35.8580152 174.88381176 -36.02868201 162.12589021 -36.1479187 149.3657074 C-36.1564286 148.45797514 -36.16493849 147.55024288 -36.17370626 146.61500359 C-36.25730978 137.5792965 -36.33200235 128.5435196 -36.40451615 119.50771761 C-36.43274576 115.99677632 -36.46140951 112.48583873 -36.49033496 108.97490311 C-36.50457429 107.24317933 -36.51865747 105.51145427 -36.53258207 103.77972794 C-36.62159576 92.84449715 -36.75709177 81.91121431 -36.94656038 70.97726345 C-37.04122864 65.50216796 -37.11964699 60.02687782 -37.19362107 54.551467 C-37.25330019 50.240194 -37.33445093 45.93007871 -37.43288873 41.61952615 C-37.50010097 38.3870018 -37.53412057 35.15409339 -37.57339478 31.92112732 C-37.60657799 30.78832273 -37.6397612 29.65551815 -37.67394996 28.48838615 C-37.72201899 21.11961739 -36.41605591 15.49998191 -32.15621948 9.38768005 C-22.75563275 0.21394845 -12.44811613 -0.05090794 0 0 Z M-18.15621948 21.38768005 C-19.40296613 23.88117334 -19.28042725 25.54377945 -19.27926731 28.33460426 C-19.28125818 29.38741962 -19.28324905 30.44023499 -19.28530025 31.52495384 C-19.28238759 32.6899724 -19.27947493 33.85499096 -19.276474 35.05531311 C-19.27733002 36.28319046 -19.27818604 37.51106781 -19.27906799 38.77615356 C-19.28043991 42.20210787 -19.27728575 45.62800567 -19.27229221 49.0539532 C-19.26793999 52.79844721 -19.26938587 56.54293968 -19.27011013 60.28743553 C-19.27064282 67.56329194 -19.26601551 74.83913606 -19.2596088 82.1149893 C-19.2524226 90.52709513 -19.25161481 98.93919352 -19.25082397 107.3513031 C-19.24556876 129.57176404 -19.23160772 151.79222223 -19.21871948 174.01268005 C-19.19809448 223.63643005 -19.17746948 273.26018005 -19.15621948 324.38768005 C115.48378052 324.38768005 250.12378052 324.38768005 388.84378052 324.38768005 C388.92628052 274.80518005 389.00878052 225.22268005 389.09378052 174.13768005 C389.13019653 158.45977966 389.16661255 142.78187927 389.20413208 126.62889099 C389.21750665 112.62208733 389.21750665 112.62208733 389.22555542 98.61528015 C389.22929446 92.3578952 389.24400442 86.10065214 389.26608276 79.8433075 C389.29148892 72.63218586 389.30313732 65.42120091 389.29756032 58.21003415 C389.29514362 54.51872064 389.29905716 50.8277129 389.32064104 47.13645506 C389.34358077 43.18946016 389.33579006 39.24287665 389.32479858 35.29582214 C389.33644924 34.13662891 389.3480999 32.97743568 389.36010361 31.78311539 C389.34815838 30.19791973 389.34815838 30.19791973 389.33597183 28.58069992 C389.33749071 27.66785225 389.33900959 26.75500457 389.3405745 25.81449485 C388.68727821 22.62317378 387.31440419 21.43796583 384.84378052 19.38768005 C382.00068896 17.96613428 379.60776859 18.25955755 376.42717266 18.25625229 C375.75776698 18.25419966 375.08836129 18.25214702 374.39867058 18.25003219 C372.13350419 18.24433353 369.86839805 18.24582294 367.60322571 18.24723816 C365.9716414 18.24465616 364.34005772 18.24164347 362.70847493 18.23823476 C358.20762031 18.23014205 353.70678161 18.22837393 349.20592058 18.22763729 C344.35850301 18.22579067 339.51109379 18.21824534 334.66368103 18.21150208 C324.05636515 18.19790218 313.44905303 18.19189148 302.84172988 18.18749142 C296.22270041 18.18473183 289.60367241 18.180495 282.98464394 18.17598724 C264.67063457 18.16379248 246.35662637 18.15349353 228.04261303 18.15011215 C226.28334402 18.1497828 226.28334402 18.1497828 224.48853423 18.1494468 C223.31282832 18.14922852 222.13712242 18.14901024 220.92578906 18.14878535 C218.54322827 18.14834188 216.16066748 18.14789532 213.77810669 18.14744568 C212.5962658 18.14722425 211.4144249 18.14700282 210.19677065 18.14677468 C191.03994017 18.14282535 171.8831477 18.12536812 152.72633191 18.10208616 C133.07419727 18.07839433 113.42208172 18.06591129 93.76993257 18.06474423 C82.72956258 18.06382626 71.68924211 18.05804318 60.64888573 18.03992462 C51.2489135 18.02455288 41.84900609 18.01938582 32.44902369 18.02766272 C27.65048511 18.03157962 22.85207718 18.03058917 18.05355453 18.01660538 C13.66347603 18.00392853 9.27362716 18.0050089 4.88354925 18.01719609 C3.29268051 18.01916393 1.70179585 18.01602489 0.11094954 18.00735173 C-2.047011 17.99632863 -4.20415113 18.00369711 -6.3620882 18.01574326 C-7.56205946 18.01514617 -8.76203072 18.01454908 -9.99836475 18.0139339 C-13.48084637 18.42610109 -15.3669094 19.29784525 -18.15621948 21.38768005 Z M-22.15621948 342.38768005 C-22.96018497 344.14998037 -23.76345889 345.91259619 -24.56643963 347.67534542 C-25.01383674 348.6568683 -25.46123386 349.63839119 -25.92218846 350.64965719 C-27.26361965 353.62597561 -28.52795675 356.62364377 -29.74337769 359.65354919 C-30.18345657 360.74740433 -30.62353546 361.84125946 -31.07695007 362.96826172 C-31.76007515 364.67827614 -31.76007515 364.67827614 -32.45700073 366.4228363 C-32.93823898 367.623311 -33.41947723 368.82378571 -33.91529846 370.06063843 C-34.92286613 372.57513525 -35.92851786 375.09038745 -36.93283081 377.60618591 C-38.22102698 380.83248274 -39.51475835 384.05652842 -40.80994892 387.28002262 C-42.04967902 390.36801077 -43.28432945 393.45802182 -44.51950073 396.5478363 C-44.9850386 397.706064 -45.45057648 398.86429169 -45.93022156 400.05761719 C-46.35453964 401.12310287 -46.77885773 402.18858856 -47.21603394 403.28636169 C-47.59178055 404.22581131 -47.96752716 405.16526093 -48.35466003 406.13317871 C-49.2678843 408.30296101 -49.2678843 408.30296101 -49.15621948 410.38768005 C-4.93621948 410.38768005 39.28378052 410.38768005 84.84378052 410.38768005 C88.80378052 400.81768005 92.76378052 391.24768005 96.84378052 381.38768005 C100.6534698 373.76830148 102.11535763 370.96382102 109.84378052 368.38768005 C111.84239798 368.28793426 113.84420149 368.24833305 115.84529114 368.24050903 C117.09997696 368.23335373 118.35466278 368.22619843 119.64736938 368.21882629 C121.04055761 368.21598604 122.43374611 368.21327431 123.82693481 368.2106781 C125.29221253 368.20441246 126.75748867 368.19776557 128.22276306 368.19076538 C133.03783056 368.16973181 137.85289834 368.1593626 142.66799927 368.1493988 C144.32673471 368.14535077 145.98546999 368.14123383 147.64420509 368.13704872 C155.43860559 368.11799738 163.23299663 368.1037671 171.02741593 368.09543675 C180.0181076 368.08566879 189.00855277 368.05936068 197.99915761 368.01893586 C204.95215393 367.98874828 211.90507972 367.97396531 218.85814029 367.97065574 C223.00895393 367.96830795 227.15950422 367.95938331 231.31024742 367.93419456 C235.21815387 367.91086287 239.12562456 367.90670085 243.03358269 367.91695595 C244.46380312 367.91745021 245.89404537 367.91116205 247.32419968 367.8973999 C255.23190097 367.82559526 261.15388831 367.94303646 267.84378052 372.38768005 C271.13120392 376.37685059 272.94616522 380.67527444 274.82424927 385.46580505 C275.08257034 386.11845337 275.34089142 386.77110168 275.60704041 387.44352722 C276.42173346 389.50571371 277.22677414 391.57150106 278.03128052 393.63768005 C278.84863234 395.71725008 279.66792614 397.79604579 280.48765564 399.87467957 C281.22567604 401.74918243 281.95904308 403.62551541 282.69216919 405.50193787 C283.7503266 408.27064322 283.7503266 408.27064322 284.84378052 410.38768005 C329.06378052 410.38768005 373.28378052 410.38768005 418.84378052 410.38768005 C417.10864693 405.1822793 415.41790453 400.13377271 413.40774536 395.05760193 C412.95072235 393.90030579 412.49369934 392.74300964 412.02282715 391.55064392 C411.53835114 390.33155334 411.05387512 389.11246277 410.55471802 387.85643005 C410.04559678 386.57136951 409.53661691 385.28625296 409.027771 384.00108337 C407.96869427 381.32787776 406.9078528 378.65538137 405.84573364 375.98338318 C404.48262898 372.55373518 403.1241476 369.12227714 401.76695824 365.69028473 C400.72053626 363.04566171 399.67165982 360.40201763 398.62202835 357.75866699 C398.11967188 356.49265223 397.61809991 355.22632589 397.11732101 353.95968628 C396.42106712 352.19966279 395.72114118 350.44109326 395.02102661 348.68260193 C394.62370331 347.68160461 394.22638 346.6806073 393.8170166 345.64927673 C393.04077401 343.46133668 393.04077401 343.46133668 391.84378052 342.38768005 C389.64937522 342.28960033 387.45173721 342.2639688 385.25514126 342.26463223 C384.55500071 342.26347838 383.85486016 342.26232454 383.13350323 342.26113573 C380.75780734 342.25846233 378.38217752 342.26299711 376.00648499 342.26742554 C374.29795442 342.26698998 372.58942391 342.26611537 370.88089377 342.26483637 C366.16289311 342.26258831 361.44491493 342.26661692 356.72691715 342.27161443 C351.64781433 342.27591432 346.56871289 342.27447284 341.48960876 342.27371216 C332.6820489 342.27318663 323.87449641 342.27633645 315.0669384 342.28195 C302.33253077 342.29006108 289.59812672 342.29267981 276.86371679 342.29393799 C256.20529525 342.29612913 235.54687765 342.30279088 214.88845825 342.3122406 C194.81521627 342.32141313 174.74197535 342.32849474 154.66873169 342.33274841 C153.43237824 342.33301114 152.1960248 342.33327386 150.9222061 342.33354454 C144.72007124 342.33484954 138.51793637 342.33611326 132.3158015 342.33735645 C80.82512512 342.34773098 29.33445301 342.36535097 -22.15621948 342.38768005 Z M113.84378052 385.38768005 C107.66702638 397.55796896 107.66702638 397.55796896 104.84378052 410.38768005 C157.64378052 410.38768005 210.44378052 410.38768005 264.84378052 410.38768005 C263.1068021 401.70278797 259.13314571 393.61109304 255.84378052 385.38768005 C208.98378052 385.38768005 162.12378052 385.38768005 113.84378052 385.38768005 Z M-53.15621948 428.38768005 C-53.15621948 433.66768005 -53.15621948 438.94768005 -53.15621948 444.38768005 C103.92378052 444.38768005 261.00378052 444.38768005 422.84378052 444.38768005 C422.84378052 439.10768005 422.84378052 433.82768005 422.84378052 428.38768005 C265.76378052 428.38768005 108.68378052 428.38768005 -53.15621948 428.38768005 Z " fill="#FFB625" transform="translate(71.15621948242188,24.612319946289063)"/>
<path d="M0 0 C1.21985106 -0.00583219 2.43970212 -0.01166439 3.69651836 -0.01767331 C5.0417695 -0.0140405 6.38702013 -0.01021615 7.73227024 -0.00622082 C9.16789227 -0.00924233 10.60351269 -0.01313181 12.03913027 -0.01781338 C15.97983534 -0.02810214 19.92044951 -0.02590934 23.86116207 -0.02163279 C28.11277396 -0.01916718 32.36436388 -0.02817765 36.61596775 -0.03567028 C44.94346228 -0.04842365 53.27092458 -0.0502102 61.59842723 -0.04787002 C68.36643961 -0.0460875 75.13444221 -0.04783507 81.90245342 -0.05209446 C82.86544513 -0.05268965 83.82843685 -0.05328484 84.82061012 -0.05389806 C86.7768768 -0.0551098 88.73314348 -0.05632394 90.68941016 -0.05754044 C109.03763599 -0.06841832 127.38584344 -0.06625224 145.73407031 -0.06015559 C162.52255227 -0.05498556 179.31097622 -0.06624371 196.09944671 -0.08525381 C213.3357551 -0.1046215 230.57203604 -0.11289013 247.80835539 -0.10913056 C257.48609677 -0.10721697 267.16378876 -0.10972145 276.84152126 -0.1238451 C285.07973312 -0.1357462 293.3178652 -0.13717804 301.55607813 -0.12505493 C305.759467 -0.11915746 309.96270983 -0.11809077 314.16608906 -0.13005733 C318.01457252 -0.14088628 321.8627875 -0.13784859 325.71125824 -0.12379565 C327.10284954 -0.12114047 328.49446168 -0.123541 329.88603257 -0.13153151 C344.97061627 -0.21213085 344.97061627 -0.21213085 350.80735874 5.00838184 C351.27399937 5.60521778 351.74063999 6.20205372 352.22142124 6.81697559 C352.9445853 7.71609669 352.9445853 7.71609669 353.68235874 8.63338184 C355.64742147 11.36996249 355.9727772 13.06579831 355.98064232 16.38536072 C355.98510016 17.25587482 355.98955801 18.12638892 355.99415094 19.02328223 C355.99387439 20.46648706 355.99387439 20.46648706 355.99359226 21.93884754 C355.99726895 22.95650552 356.00094564 23.9741635 356.00473374 25.0226596 C356.01580434 28.45499845 356.01962014 31.88730707 356.02342319 35.31966114 C356.02968531 37.77162237 356.03633188 40.22358265 356.04333591 42.67554188 C356.06258913 50.05040765 356.07316835 57.4252654 356.0820637 64.80014893 C356.08644561 68.27248758 356.09181272 71.7448247 356.09705257 75.21716213 C356.11406684 86.75940827 356.12856072 98.30165346 356.13580132 109.84391022 C356.13771124 112.84005897 356.13963157 115.83620772 356.14158726 118.83235645 C356.142071 119.57704297 356.14255474 120.32172949 356.14305314 121.08898226 C356.15135229 133.15071203 356.17668634 145.21234259 356.20916793 157.27402904 C356.24223944 169.65567403 356.26025021 182.03726861 356.26344556 194.41895801 C356.26561073 201.37153956 356.27436008 208.32397649 356.29990673 215.27651501 C356.32388499 221.81738001 356.3274388 228.35803149 356.31714535 234.89894772 C356.31664877 237.30034087 356.32300492 239.70174664 356.33670139 242.10310078 C356.35435064 245.38077617 356.34734764 248.65750993 356.33416843 251.93518543 C356.3506223 253.36165985 356.3506223 253.36165985 356.36740857 254.81695193 C356.30907139 260.82378385 355.3393481 264.32839204 351.84642124 269.25447559 C347.3098755 273.45907896 344.08546741 274.37846971 337.99951649 274.38869667 C336.77170499 274.39315451 335.54389349 274.39761236 334.27887559 274.40220529 C332.90907716 274.40211599 331.53927873 274.40192613 330.16948032 274.40164661 C328.71994927 274.40494526 327.27041914 274.40867082 325.82089019 274.41278809 C321.82782716 274.42281607 317.83477916 274.42652616 313.84170532 274.4291774 C309.53891898 274.43307805 305.23614456 274.44265651 300.93336582 274.45139027 C290.53775849 274.47116071 280.14215018 274.48122129 269.74652874 274.49011806 C264.8531161 274.49449972 259.95970455 274.49986681 255.06629276 274.50510693 C238.80333398 274.52211924 222.54037587 274.5366142 206.27740955 274.54385567 C202.05627282 274.54576561 197.83513608 274.54768594 193.61399937 274.54964161 C192.56483564 274.55012535 191.51567192 274.55060909 190.43471536 274.55110749 C173.4326368 274.55941075 156.43062853 274.58475264 139.42858067 274.61722229 C121.979929 274.65027368 104.53131307 274.66830266 87.08262992 274.67149991 C77.28297585 274.67366671 67.4834243 274.68244027 57.6838007 274.70796108 C49.33937458 274.7296418 40.99507587 274.73773145 32.65062478 274.7279943 C28.39252682 274.72344205 24.13469191 274.72538937 19.87662983 274.74475574 C15.97800848 274.76233435 12.07984312 274.7614332 8.18121728 274.74585845 C6.77136119 274.74347429 5.36147395 274.74784782 3.95166555 274.7596871 C-9.17684264 274.8631027 -9.17684264 274.8631027 -15.15357876 270.25447559 C-18.80204781 266.31796951 -20.27514742 263.33899486 -20.28779984 257.99774933 C-20.29225768 257.12462748 -20.29671552 256.25150564 -20.30130845 255.35192555 C-20.30112409 254.39201972 -20.30093973 253.43211389 -20.30074978 252.44312 C-20.30442647 251.42390203 -20.30810315 250.40468406 -20.31189126 249.3545807 C-20.32294645 245.92301394 -20.32677503 242.49147744 -20.33058071 239.05989552 C-20.33684389 236.60616427 -20.34349055 234.15243397 -20.35049343 231.69870472 C-20.36973237 224.32426194 -20.38032259 216.94982721 -20.38922122 209.57536671 C-20.39360459 206.10290132 -20.39897122 202.63043747 -20.40421009 199.15797329 C-20.42122065 187.61568455 -20.43571549 176.07339676 -20.44295883 164.53109741 C-20.44486873 161.53613948 -20.44678906 158.54118155 -20.44874477 155.54622364 C-20.44922851 154.80184031 -20.44971225 154.05745699 -20.45021065 153.29051659 C-20.4585135 141.22817489 -20.48385544 129.16593227 -20.51632545 117.10363384 C-20.54938665 104.72083201 -20.56740668 92.33808056 -20.57060307 79.95523435 C-20.57276889 73.00214067 -20.58152809 66.04919155 -20.60706425 59.09614086 C-20.63102517 52.55690723 -20.63460285 46.01788722 -20.62430286 39.47860241 C-20.62380593 37.07678837 -20.6301726 34.67496178 -20.64385891 32.27318668 C-20.66148328 28.99740357 -20.65451762 25.72256496 -20.64132595 22.44678211 C-20.6522952 21.49356845 -20.66326444 20.54035478 -20.67456609 19.55825585 C-20.6197342 13.92901826 -19.88874839 10.73589492 -16.15357876 6.25447559 C-15.53482876 5.51197559 -14.91607876 4.76947559 -14.27857876 4.00447559 C-10.03872149 0.51282843 -5.34587143 0.00440854 0 0 Z M-2.15357876 18.25447559 C-2.15357876 96.79447559 -2.15357876 175.33447559 -2.15357876 256.25447559 C110.04642124 256.25447559 222.24642124 256.25447559 337.84642124 256.25447559 C337.84642124 177.71447559 337.84642124 99.17447559 337.84642124 18.25447559 C225.64642124 18.25447559 113.44642124 18.25447559 -2.15357876 18.25447559 Z " fill="#FFB725" transform="translate(88.15357875823975,58.745524406433105)"/>
<path d="M0 0 C1.00560974 -0.00511093 2.01121948 -0.01022186 3.04730225 -0.01548767 C6.36232499 -0.02935687 9.67713924 -0.02842912 12.9921875 -0.02612305 C15.30094479 -0.03001096 17.60970138 -0.03434583 19.91845703 -0.03910828 C24.75360434 -0.04656439 29.58867861 -0.04628324 34.42382812 -0.04101562 C40.61784264 -0.03521675 46.81155855 -0.05216529 53.00552368 -0.0753603 C57.77190903 -0.0900946 62.53822237 -0.09096982 67.30462646 -0.08785057 C69.58836459 -0.08836376 71.87210674 -0.09360113 74.15582275 -0.10366249 C77.34887093 -0.11600567 80.54133608 -0.10924794 83.734375 -0.09765625 C84.67585388 -0.10529999 85.61733276 -0.11294373 86.58734131 -0.12081909 C91.76889695 -0.07926522 95.38205304 0.37876107 99.8671875 3.2746582 C102.03941129 5.91910455 101.86612071 7.30452838 101.7421875 10.7746582 C100.72944058 14.82564589 100.27229885 15.90544829 96.8671875 18.2746582 C93.34542783 18.88171182 89.85322469 18.82062079 86.28710938 18.79223633 C84.67190147 18.80275024 84.67190147 18.80275024 83.02406311 18.81347656 C79.46109303 18.83109612 75.8989158 18.81941908 72.3359375 18.8059082 C69.86258796 18.80860196 67.38923946 18.8124834 64.91589355 18.81750488 C59.73077315 18.82340533 54.54592825 18.81481898 49.36083984 18.79614258 C42.70901794 18.77335296 36.05811062 18.78647289 29.40627289 18.81043243 C24.29851402 18.82487535 19.1909086 18.82029124 14.08314514 18.80992126 C11.63029403 18.80724983 9.17742905 18.81053829 6.72459412 18.81983948 C3.29844166 18.82997978 -0.12666031 18.81453776 -3.55273438 18.79223633 C-4.57000107 18.80033325 -5.58726776 18.80843018 -6.63536072 18.81677246 C-13.47482269 18.73414933 -13.47482269 18.73414933 -16.73547363 16.45715332 C-18.72873024 13.3438979 -19.06825699 10.95432221 -19.1328125 7.2746582 C-18.0703125 4.4621582 -18.0703125 4.4621582 -16.1328125 2.2746582 C-10.81015566 -0.12063531 -5.71988796 -0.01505137 0 0 Z " fill="#FFB624" transform="translate(223.1328125,237.725341796875)"/>
<path d="M0 0 C0.9987767 -0.00700928 1.99755341 -0.01401855 3.02659607 -0.02124023 C6.32986203 -0.03885318 9.63227211 -0.02718532 12.93554688 -0.01367188 C15.22953455 -0.01636583 17.52352112 -0.02024744 19.81750488 -0.02526855 C24.62600574 -0.0311681 29.43420945 -0.02258566 34.24267578 -0.00390625 C40.41016542 0.01888317 46.57695883 0.00576259 52.74442291 -0.01819611 C57.48160052 -0.03264154 62.21861273 -0.02805378 66.95579529 -0.01768494 C69.23001691 -0.0150142 71.50425348 -0.01829955 73.77845764 -0.02760315 C76.95557506 -0.03774772 80.13156075 -0.02229598 83.30859375 0 C84.25105453 -0.00809692 85.19351532 -0.01619385 86.16453552 -0.02453613 C92.52805466 0.05831015 92.52805466 0.05831015 95.7364502 2.41125488 C98.13877531 5.9800986 97.92191365 9.38308775 97.15429688 13.51757812 C94.95598323 16.54973487 93.70466494 17.3341221 90.15429688 18.51757812 C88.82023018 18.6113362 87.48202926 18.65238566 86.14468384 18.65802002 C84.92507713 18.66658524 84.92507713 18.66658524 83.68083191 18.67532349 C82.34826103 18.67700027 82.34826103 18.67700027 80.98876953 18.67871094 C79.58101509 18.68615829 79.58101509 18.68615829 78.14482117 18.6937561 C75.03599315 18.70837723 71.92721615 18.71517936 68.81835938 18.72070312 C66.65986123 18.72645424 64.5013631 18.73221198 62.34286499 18.73797607 C57.81516278 18.74848566 53.28747832 18.75432873 48.75976562 18.7578125 C42.95680973 18.76329974 37.15408818 18.78733298 31.35120583 18.81578445 C26.89197095 18.83440264 22.43279265 18.83961598 17.97352219 18.84114838 C15.83408704 18.84417684 13.69465294 18.85221188 11.55525589 18.86533356 C8.56285988 18.88237808 5.57103807 18.88051769 2.57861328 18.87402344 C1.69428116 18.88323822 0.80994904 18.892453 -0.10118103 18.90194702 C-6.07836177 18.86128818 -9.50806419 17.85521706 -13.84570312 13.51757812 C-14.18164062 11.49414062 -14.18164062 11.49414062 -14.22070312 9.14257812 C-14.2490625 8.37171875 -14.27742188 7.60085938 -14.30664062 6.80664062 C-12.78746159 -0.73775696 -6.21801711 -0.05342059 0 0 Z " fill="#FFB625" transform="translate(286.845703125,272.482421875)"/>
<path d="M0 0 C0.70427124 -0.0049649 1.40854248 -0.00992981 2.13415527 -0.01504517 C4.46924815 -0.02967629 6.80427307 -0.03647087 9.1394043 -0.04199219 C10.76124575 -0.04774353 12.38308718 -0.05350127 14.00492859 -0.05926514 C17.40872515 -0.06977829 20.81249807 -0.07561867 24.21630859 -0.07910156 C28.57435485 -0.08458236 32.93208805 -0.1086 37.2900362 -0.13707352 C40.64180915 -0.15571469 43.99350697 -0.16090631 47.34532738 -0.16243744 C48.95166927 -0.16546193 50.55800991 -0.17348364 52.16430092 -0.18662262 C54.41446209 -0.20371202 56.66386243 -0.20179603 58.9140625 -0.1953125 C60.19376419 -0.19895813 61.47346588 -0.20260376 62.79194641 -0.20635986 C66.40010553 0.1883714 68.26304332 1.01283061 71.15112305 3.16113281 C73.252139 5.83515311 73.1495928 7.20397966 73.02612305 10.66113281 C72.03740281 14.61601374 71.36865468 15.74134706 68.15112305 18.16113281 C65.52465679 18.55614225 63.31618437 18.70909194 60.69213867 18.67871094 C59.9469548 18.68572021 59.20177094 18.69272949 58.43400574 18.69995117 C55.97474729 18.71753323 53.51664286 18.70590855 51.05737305 18.69238281 C49.34631123 18.69507769 47.63525091 18.69896007 45.92419434 18.70397949 C42.3396953 18.70987479 38.75559521 18.7013108 35.17114258 18.68261719 C30.57745865 18.65982732 25.9847095 18.67295027 21.39105988 18.69690704 C17.85826581 18.71136433 14.32569321 18.70675942 10.79289246 18.69639587 C9.09921661 18.69372838 7.40552062 18.69699917 5.71186829 18.70631409 C3.34407328 18.71647893 0.97778988 18.70098161 -1.38989258 18.67871094 C-2.08923416 18.68680786 -2.78857574 18.69490479 -3.5091095 18.70324707 C-6.88329825 18.64447929 -8.58514834 18.36640209 -11.28186035 16.26745605 C-13.57024334 13.19149995 -13.40623232 11.00236605 -13.24731445 7.28613281 C-12.67422821 4.22967283 -11.34763831 2.92496436 -8.84887695 1.16113281 C-5.90804137 -0.30928498 -3.28318906 0.01755059 0 0 Z " fill="#FFB724" transform="translate(140.848876953125,203.8388671875)"/>
<path d="M0 0 C1.0566259 -0.00744736 1.0566259 -0.00744736 2.13459778 -0.01504517 C4.46425352 -0.02964659 6.79384118 -0.03646521 9.12353516 -0.04199219 C10.74394736 -0.04774508 12.36435955 -0.0535028 13.98477173 -0.05926514 C17.38259193 -0.06976922 20.78038851 -0.07561583 24.17822266 -0.07910156 C28.52839313 -0.08458664 32.87825066 -0.10861726 37.22832298 -0.13707352 C40.57580473 -0.15571246 43.92321126 -0.16090615 47.27074051 -0.16243744 C48.87429135 -0.16546141 50.47784095 -0.17348133 52.08134079 -0.18662262 C54.3266038 -0.20371069 56.57110428 -0.2017966 58.81640625 -0.1953125 C60.09309174 -0.19895813 61.36977722 -0.20260376 62.68515015 -0.20635986 C66.28822782 0.1886067 68.17093162 0.98487171 71.03759766 3.16113281 C72.18122877 5.44839505 72.30261698 6.98965708 72.41259766 9.53613281 C72.46158203 10.30699219 72.51056641 11.07785156 72.56103516 11.87207031 C71.7653732 15.35160692 69.99205434 16.25657527 67.03759766 18.16113281 C64.40875588 18.55809387 62.19672227 18.72943412 59.57275391 18.71044922 C58.83878387 18.72067108 58.10481384 18.73089294 57.34860229 18.74142456 C54.93209869 18.7691348 52.51674084 18.76731065 50.10009766 18.76269531 C48.41527891 18.77047281 46.73046408 18.77914289 45.0456543 18.78866577 C41.51842521 18.80357164 37.99159659 18.80302096 34.46435547 18.79248047 C29.94783483 18.78088138 25.43295203 18.81477967 20.91670227 18.86116982 C17.4387456 18.89065401 13.96118328 18.89238716 10.48312378 18.88615036 C8.81815339 18.88717599 7.15316069 18.89763704 5.48831177 18.9177742 C3.15860908 18.94249971 0.83209433 18.92893646 -1.49755859 18.90576172 C-2.52479538 18.92869293 -2.52479538 18.92869293 -3.57278442 18.9520874 C-6.31305193 18.89193909 -8.38587222 18.64454636 -10.52120972 16.85409164 C-12.42793494 14.650146 -13.84788428 12.8422767 -14.33740234 9.93066406 C-13.78549235 7.0503838 -13.30044677 4.63746814 -11.58740234 2.22363281 C-7.86231838 -0.21199901 -4.31690587 0.0231166 0 0 Z " fill="#FFB724" transform="translate(183.96240234375,169.8388671875)"/>
<path d="M0 0 C0.65754776 -0.0071553 1.31509552 -0.01431061 1.99256897 -0.02168274 C4.15453703 -0.03851893 6.31441645 -0.01920355 8.47631836 0.00219727 C9.9841682 0.00136818 11.49201795 -0.00109272 12.99986267 -0.00511169 C16.15480868 -0.00796603 19.3090433 0.00669625 22.46386719 0.03417969 C26.50494758 0.06829237 30.54475881 0.06223177 34.58590031 0.04351711 C37.69753068 0.03294286 40.80886631 0.04188806 43.92046928 0.05690193 C45.41038576 0.06207919 46.90033307 0.06160745 48.39024544 0.05535698 C50.47307551 0.04989794 52.55409513 0.0702956 54.63671875 0.09765625 C56.41279259 0.10695412 56.41279259 0.10695412 58.2247467 0.11643982 C61.85516027 0.73330817 63.03555781 1.74785003 65.25366211 4.63110352 C65.98714384 7.69446841 65.82736092 10.54108222 65.25366211 13.63110352 C63.05534847 16.66326026 61.80403017 17.4476475 58.25366211 18.63110352 C56.24081871 18.73507704 54.22471649 18.77969652 52.20922852 18.79223633 C50.96428619 18.80184387 49.71934387 18.81145142 48.43667603 18.8213501 C47.07619408 18.82619804 45.71571001 18.83047688 44.35522461 18.83422852 C42.95901488 18.83998255 41.56280516 18.84574026 40.16659546 18.85150146 C37.23955925 18.862002 34.31255043 18.8678509 31.38549805 18.87133789 C27.64064692 18.87682158 23.89615958 18.90085048 20.1514225 18.92930984 C17.26717074 18.94796219 14.38300617 18.95314319 11.49869919 18.95467377 C10.11843247 18.95769484 8.73816709 18.96570499 7.35795975 18.97885895 C5.42434165 18.9959722 3.49057303 18.99218675 1.55688477 18.98754883 C-0.09167007 18.99301727 -0.09167007 18.99301727 -1.77352905 18.99859619 C-6.10890945 18.46266515 -8.70037436 16.67706704 -11.74633789 13.63110352 C-12.38149017 8.09620504 -12.38149017 8.09620504 -11.74633789 5.63110352 C-8.04892383 1.0889934 -5.81888617 0.0047233 0 0 Z " fill="#FFB625" transform="translate(190.746337890625,272.368896484375)"/>
<path d="M0 0 C2.69990662 1.79993774 4.5418865 3.083773 6 6 C6.5 8.625 6.5 8.625 6 12 C3.95124966 14.94904626 1.52690338 17.45743399 -1 20 C-1.52078125 20.53496094 -2.0415625 21.06992188 -2.578125 21.62109375 C-3.70349776 22.76263566 -4.84921177 23.88408414 -6 25 C-4.4744094 28.65141356 -2.27519091 30.90118112 0.5625 33.625 C5.92083581 38.78614905 5.92083581 38.78614905 6.1875 42.875 C6.00235491 45.96075154 5.77840309 47.51023567 4 50 C0.7677285 52.30876536 -2.10964537 52.46684256 -6 52 C-11.36216692 48.93259328 -15.44341718 44.82446109 -19.75 40.4375 C-20.42160156 39.76525391 -21.09320313 39.09300781 -21.78515625 38.40039062 C-28.73147931 31.39142537 -28.73147931 31.39142537 -29.6875 26.4375 C-29.51207047 20.04016965 -24.28374788 16.20173209 -20 12 C-19.11441406 11.07960938 -18.22882813 10.15921875 -17.31640625 9.2109375 C-7.49428622 -0.9176677 -7.49428622 -0.9176677 0 0 Z " fill="#FFB623" transform="translate(131,102)"/>
<path d="M0 0 C3.06495745 1.91307234 5.46439185 4.44370989 8 7 C9.12012959 8.09733922 10.24130364 9.19361287 11.36328125 10.2890625 C21.80048284 20.55350056 21.80048284 20.55350056 22.5 25.625 C22.36560252 31.40409147 18.94824872 34.14119381 15 38 C13.90178149 39.1179633 12.80558107 40.2379111 11.7109375 41.359375 C1.38481156 51.8693574 1.38481156 51.8693574 -3.3125 52.3125 C-7.6673999 51.94344069 -9.14119546 51.27921697 -12 48 C-13.08921714 44.25581608 -13.55711716 42.11784025 -11.79296875 38.578125 C-9.85571224 35.7925274 -7.74525623 33.54974156 -5.3125 31.1875 C-4.50425781 30.39730469 -3.69601563 29.60710937 -2.86328125 28.79296875 C-2.24839844 28.20128906 -1.63351563 27.60960937 -1 27 C-2.90808867 22.39139239 -6.37169444 19.70339352 -10.00390625 16.4140625 C-12.38967701 13.52872722 -12.81606929 11.70844088 -13 8 C-10.40234974 1.24610932 -7.29789187 -1.07673814 0 0 Z " fill="#FFB724" transform="translate(217,102)"/>
<path d="M0 0 C1.29670876 -0.00956978 1.29670876 -0.00956978 2.61961365 -0.01933289 C3.54572952 -0.02044571 4.4718454 -0.02155853 5.42602539 -0.02270508 C6.86468712 -0.02769768 6.86468712 -0.02769768 8.33241272 -0.03279114 C10.3589734 -0.03784912 12.38554239 -0.04019981 14.41210938 -0.04003906 C17.50868466 -0.04222574 20.60490372 -0.06039399 23.70141602 -0.0793457 C25.67211792 -0.08227983 27.64282152 -0.0842645 29.61352539 -0.08520508 C30.99966286 -0.09598335 30.99966286 -0.09598335 32.4138031 -0.10697937 C37.81785175 -0.08781641 42.24778652 -0.03186282 46.39868164 3.83276367 C48.10452078 7.15466094 48.0387073 9.46041185 47.58618164 13.14526367 C46.28540039 15.82861328 46.28540039 15.82861328 43.58618164 18.14526367 C39.71828477 18.90416693 35.89171146 18.82136223 31.96118164 18.77416992 C30.82213379 18.77658188 29.68308594 18.77899384 28.50952148 18.78147888 C26.10209673 18.7804997 23.69464967 18.76708946 21.28735352 18.7421875 C17.59972745 18.70788966 13.91449805 18.72152422 10.22680664 18.7409668 C7.88825476 18.73406833 5.54970907 18.72439594 3.21118164 18.71166992 C1.55481689 18.71910973 1.55481689 18.71910973 -0.13500977 18.72669983 C-1.16287598 18.71086349 -2.19074219 18.69502716 -3.24975586 18.67871094 C-4.60399658 18.66941307 -4.60399658 18.66941307 -5.9855957 18.65992737 C-9.17362536 17.98422198 -10.38623788 16.64094073 -12.41381836 14.14526367 C-13.14758998 11.08068808 -12.98216598 8.23707473 -12.41381836 5.14526367 C-9.15941471 0.4961156 -5.38579625 0.02709488 0 0 Z " fill="#FFB624" transform="translate(140.413818359375,237.854736328125)"/>
<path d="M0 0 C2.9375 2 2.9375 2 5 5 C5.65951736 11.57890554 4.19927684 15.75973823 1.203125 21.55078125 C0.81308289 22.33140427 0.42304077 23.11202728 0.0211792 23.91630554 C-0.80179713 25.55459626 -1.63256737 27.18899277 -2.47070312 28.81958008 C-3.75050675 31.31348749 -5.00181756 33.82022071 -6.25 36.33007812 C-7.05564765 37.92531052 -7.86288528 39.51974112 -8.671875 41.11328125 C-9.04495789 41.86015701 -9.41804077 42.60703278 -9.8024292 43.37654114 C-13.23344173 49.99611911 -13.23344173 49.99611911 -17 52 C-21.24649943 52.54046356 -23.25823192 52.48376179 -26.875 50.125 C-29.29688253 47.70311747 -29.91168198 46.77305435 -30.29760742 43.39501953 C-29.9040887 38.90587159 -28.26124604 35.66062526 -26.23828125 31.6796875 C-25.65677559 30.50806564 -25.65677559 30.50806564 -25.06352234 29.31277466 C-24.24298966 27.66763804 -23.41642488 26.02549786 -22.58422852 24.38623047 C-21.31735221 21.88458146 -20.07656439 19.37117902 -18.83789062 16.85546875 C-18.03539188 15.25443665 -17.23140425 13.65414979 -16.42578125 12.0546875 C-16.05785965 11.30669891 -15.68993805 10.55871033 -15.31086731 9.78805542 C-11.83048656 3.01014133 -8.23725103 -1.32384392 0 0 Z " fill="#FFB724" transform="translate(183,102)"/>
<path d="M0 0 C2.15566989 -0.00437403 4.30929153 -0.04071884 6.46459961 -0.07861328 C7.84284786 -0.08448213 9.22110577 -0.08845107 10.59936523 -0.09033203 C11.84645264 -0.0985498 13.09354004 -0.10676758 14.37841797 -0.11523438 C18.30859725 0.45477195 19.93559044 1.60530049 22.72827148 4.37060547 C24.29762742 7.50931734 24.08028251 9.90916369 23.72827148 13.37060547 C21.06542903 16.86162739 19.57809609 18.21813485 15.21069336 19.00170898 C13.87305569 19.02773441 12.53465834 19.02557897 11.19702148 18.99951172 C10.12671692 19.00312965 10.12671692 19.00312965 9.03479004 19.00682068 C7.53200705 19.00584482 6.02918695 18.99251312 4.52661133 18.9675293 C2.23450861 18.93319889 -0.05373824 18.94688309 -2.34594727 18.96630859 C-3.81080732 18.95940965 -5.27565749 18.9497368 -6.74047852 18.93701172 C-7.42082153 18.94197159 -8.10116455 18.94693146 -8.80212402 18.95204163 C-13.52563752 18.8359181 -15.98092565 17.74398567 -19.27172852 14.37060547 C-20.5833162 10.59979088 -20.4582876 8.88118822 -19.08422852 5.12060547 C-14.7092191 -1.51733985 -7.1496781 -0.0016277 0 0 Z " fill="#FFB724" transform="translate(130.271728515625,169.62939453125)"/>
<path d="M0 0 C1.22783203 -0.01224609 2.45566406 -0.02449219 3.72070312 -0.03710938 C4.90470703 -0.03904297 6.08871094 -0.04097656 7.30859375 -0.04296875 C8.38810303 -0.04707764 9.4676123 -0.05118652 10.57983398 -0.05541992 C14.40673401 0.2562577 17.2815231 1.22046055 20.34765625 3.53515625 C21.91347553 5.66487187 21.99556997 6.99798979 22 9.625 C22.01933594 10.38683594 22.03867187 11.14867187 22.05859375 11.93359375 C21.35222699 15.14283485 20.15621198 16.17959847 17.5625 18.1875 C14.87281961 18.59793031 12.5981646 18.77275355 9.91015625 18.75390625 C9.17300888 18.76010483 8.43586151 18.76630341 7.67637634 18.77268982 C6.1206087 18.77977893 4.56476505 18.77662966 3.0090332 18.76391602 C0.63545225 18.75006101 -1.73417458 18.78411052 -4.10742188 18.82226562 C-5.62239679 18.82321703 -7.13737662 18.82135682 -8.65234375 18.81640625 C-9.3576976 18.82966446 -10.06305145 18.84292267 -10.78977966 18.85658264 C-14.64151169 18.78425278 -16.32663841 18.27466514 -19.38891602 15.86694336 C-21.4375 13.1875 -21.4375 13.1875 -22 9.6875 C-21.34999932 5.64305135 -20.39744621 3.98300476 -17.4375 1.1875 C-11.97796207 -0.74505967 -5.7034232 0.00298452 0 0 Z " fill="#FFB624" transform="translate(362.4375,237.8125)"/>
<path d="M0 0 C1.71316406 -0.00773437 1.71316406 -0.00773437 3.4609375 -0.015625 C4.64945313 -0.00015625 5.83796875 0.0153125 7.0625 0.03125 C8.25101563 0.01578125 9.43953125 0.0003125 10.6640625 -0.015625 C11.80617187 -0.01046875 12.94828125 -0.0053125 14.125 0 C15.16785156 0.00451172 16.21070313 0.00902344 17.28515625 0.01367188 C20.74767338 0.65893702 21.91089193 1.79442445 24.0625 4.53125 C25.28111894 8.26834808 25.22908838 10.04999468 23.9375 13.78125 C21.68783468 17.08075914 20.86451627 17.45977269 17.0625 18.53125 C13.72527072 18.83867512 10.41205908 18.85588608 7.0625 18.84375 C5.72832031 18.86791992 5.72832031 18.86791992 4.3671875 18.89257812 C-0.56552254 18.89625925 -3.93780407 18.74194341 -7.9375 15.53125 C-10.33036884 13.13838116 -10.25800616 12.43677906 -10.3125 9.15625 C-10.34085937 8.38539063 -10.36921875 7.61453125 -10.3984375 6.8203125 C-9.25780928 1.15583678 -5.22236992 0.02259369 0 0 Z " fill="#FFB625" transform="translate(137.9375,272.46875)"/>
</svg>
