<?xml version="1.0" encoding="UTF-8"?>
<svg version="1.1" xmlns="http://www.w3.org/2000/svg" width="500" height="500">
<path d="M0 0 C165 0 330 0 500 0 C500 165 500 330 500 500 C335 500 170 500 0 500 C0 335 0 170 0 0 Z " fill="#000000" transform="translate(0,0)"/>
<path d="M0 0 C1.11591019 -0.00708481 2.23182037 -0.01416962 3.38154602 -0.02146912 C4.60138687 -0.0189917 5.82122772 -0.01651428 7.07803345 -0.01396179 C8.36620468 -0.01907272 9.65437592 -0.02418365 10.98158264 -0.02944946 C14.51265664 -0.04283675 18.04362357 -0.04341836 21.574718 -0.04088616 C24.52444654 -0.03981608 27.47415345 -0.04470087 30.42387736 -0.04949158 C37.38462163 -0.06058623 44.34531195 -0.06102469 51.30606079 -0.05497742 C58.48154773 -0.0489393 65.65683849 -0.06124451 72.83229196 -0.08254749 C78.9971839 -0.10017574 85.16201348 -0.10616285 91.32692969 -0.10290974 C95.00700248 -0.10109839 98.68693539 -0.103718 102.36698532 -0.11762428 C106.47262 -0.13255813 110.57785677 -0.12322183 114.6835022 -0.11161804 C115.89929459 -0.11926178 117.11508698 -0.12690552 118.36772156 -0.13478088 C128.90970801 -0.06884998 128.90970801 -0.06884998 133.51016235 3.26069641 C136.45076346 6.44163491 136.88733298 8.57643697 136.89784241 12.86442566 C136.90774704 14.00557831 136.91765167 15.14673096 136.92785645 16.32246399 C136.9233548 17.57035706 136.91885315 18.81825012 136.91421509 20.10395813 C136.92107834 21.42139008 136.92794159 22.73882202 136.93501282 24.09617615 C136.95296026 27.70786772 136.95177269 31.31931655 136.94607043 34.93103933 C136.94298017 37.94788078 136.94906936 40.96467549 136.95510918 43.98151028 C136.96915863 51.10049076 136.96759029 58.21935125 136.95620728 65.33833313 C136.94473137 72.67747619 136.95879162 80.0162536 136.98560375 87.35534847 C137.00777391 93.66038009 137.01439502 99.96529705 137.00852734 106.27036488 C137.00515896 110.03430949 137.00756433 113.79801984 137.02477837 117.56193161 C137.04026614 121.10301749 137.03627237 124.64356287 137.01747322 128.18462753 C137.01204046 130.09905084 137.02628846 132.01349851 137.04116821 133.9278717 C136.94815805 144.77410443 136.94815805 144.77410443 132.51016235 149.26069641 C128.87123089 151.05070727 125.9330399 151.5141634 121.90007019 151.52812195 C120.78278534 151.53665192 119.66550049 151.54518188 118.51435852 151.55397034 C116.68999016 151.55261078 116.68999016 151.55261078 114.82876587 151.55122375 C113.54044861 151.55794098 112.25213135 151.5646582 110.92477417 151.57157898 C107.39790128 151.58921493 103.87112549 151.59393327 100.34421277 151.59521055 C98.13919841 151.59663383 95.93420861 151.60090671 93.72920036 151.60620499 C86.03239249 151.62469577 78.33565381 151.6328766 70.63882446 151.63130188 C63.47065202 151.63010003 56.30278045 151.65121316 49.13468415 151.68278921 C42.97401662 151.70895789 36.81344735 151.71966897 30.65272468 151.71839106 C26.97596679 151.71788169 23.29947652 151.72355099 19.62277412 151.74474716 C15.52195846 151.76774428 11.42181573 151.75860515 7.32095337 151.74653625 C5.49962135 151.76339478 5.49962135 151.76339478 3.64149475 151.78059387 C-6.83895126 151.70210101 -6.83895126 151.70210101 -11.48983765 147.26069641 C-13.18680912 144.44025299 -13.73883257 142.37273822 -13.73034668 139.09718323 C-13.73309601 138.27551163 -13.73584534 137.45384003 -13.73867798 136.60726929 C-13.73148743 135.71462875 -13.72429687 134.82198822 -13.71688843 133.90229797 C-13.71718048 132.95561752 -13.71747253 132.00893707 -13.71777344 131.03356934 C-13.71638067 127.90605996 -13.70082181 124.77878914 -13.68515015 121.65132141 C-13.68141983 119.4822757 -13.67857295 117.3132283 -13.67657471 115.1441803 C-13.66893972 109.4362472 -13.6492923 103.72841594 -13.62716675 98.02052307 C-13.60670548 92.19564695 -13.59757238 86.37075437 -13.5874939 80.54585266 C-13.56604635 69.11742251 -13.53191194 57.68906793 -13.48983765 46.26069641 C-2.36320162 46.2143536 8.76341143 46.17881726 19.89012432 46.15707207 C25.0567179 46.14663542 30.22324545 46.13247828 35.38980103 46.1098175 C40.37591514 46.08808504 45.36196573 46.07612689 50.34812355 46.07094193 C52.25031344 46.06724691 54.15249986 46.0600315 56.0546627 46.0492363 C58.71918625 46.03471609 61.3834474 46.0327187 64.04800415 46.03364563 C64.83419128 46.02645508 65.62037842 46.01926453 66.4303894 46.01185608 C70.54300652 46.02733463 73.86459158 46.26939826 77.51016235 48.26069641 C78.66121052 50.56279274 78.77572137 52.13475177 78.88516235 54.69819641 C78.93414673 55.48065735 78.9831311 56.26311829 79.03359985 57.06929016 C78.51016235 59.26069641 78.51016235 59.26069641 76.35142517 60.87637329 C73.12549759 62.44811319 71.09743203 62.62421206 67.52651978 62.60127258 C65.73063416 62.60072876 65.73063416 62.60072876 63.89846802 62.60017395 C62.65013184 62.58482605 61.40179565 62.56947815 60.1156311 62.55366516 C58.38343323 62.5491333 58.38343323 62.5491333 56.61624146 62.54450989 C52.30995727 62.52883527 48.00380067 62.48695131 43.69766235 62.44819641 C34.06578735 62.38632141 24.43391235 62.32444641 14.51016235 62.26069641 C14.51016235 84.37069641 14.51016235 106.48069641 14.51016235 129.26069641 C23.09016235 129.26069641 31.67016235 129.26069641 40.51016235 129.26069641 C40.51016235 115.07069641 40.51016235 100.88069641 40.51016235 86.26069641 C48.73953735 86.16788391 48.73953735 86.16788391 57.13516235 86.07319641 C58.85557739 86.0458844 60.57599243 86.01857239 62.34854126 85.99043274 C63.72792867 85.98166243 65.10732391 85.97401978 66.48672485 85.96772766 C67.19015015 85.95237976 67.89357544 85.93703186 68.61831665 85.92121887 C73.32236939 85.91874566 76.52275493 86.75915892 80.51016235 89.26069641 C82.10762115 92.455614 82.01833077 95.7927903 81.51016235 99.26069641 C79.30275555 102.22927798 78.02418863 103.08935432 74.51016235 104.26069641 C71.93519167 104.3310508 69.39566306 104.35418981 66.82266235 104.32319641 C64.40953735 104.30257141 61.99641235 104.28194641 59.51016235 104.26069641 C59.51016235 112.51069641 59.51016235 120.76069641 59.51016235 129.26069641 C81.42948956 128.77717557 81.42948956 128.77717557 100.29141235 118.62788391 C105.8349839 112.56799933 108.0567439 106.51204826 107.88516235 98.32319641 C107.86884766 97.26552063 107.86884766 97.26552063 107.85220337 96.18647766 C107.54789684 86.26493657 104.32271737 81.27856131 97.51016235 74.26069641 C98.45689976 72.22122937 99.35310851 70.4486851 100.79922485 68.71772766 C105.83305377 62.5211137 105.4952646 54.85163061 104.82315063 47.26069641 C104.10948445 42.70035835 101.93634841 39.09486585 99.51016235 35.26069641 C99.18016235 34.27069641 98.85016235 33.28069641 98.51016235 32.26069641 C96.709874 31.15923563 96.709874 31.15923563 94.51016235 30.26069641 C93.74059204 29.85850891 92.97102173 29.45632141 92.1781311 29.04194641 C90.95029907 28.40772766 90.95029907 28.40772766 89.69766235 27.76069641 C88.88684204 27.33788391 88.07602173 26.91507141 87.2406311 26.47944641 C80.8525118 23.62809702 75.27324803 22.95992886 68.36196899 22.94184875 C67.02907333 22.92678032 67.02907333 22.92678032 65.66925049 22.91140747 C62.75294601 22.88069229 59.83673285 22.86357288 56.9203186 22.84663391 C54.89007284 22.82791288 52.85983479 22.80833877 50.8296051 22.78794861 C45.50157217 22.7367203 40.17351405 22.69704482 34.84536743 22.6598053 C29.40218926 22.61970729 23.95911509 22.56864141 18.51602173 22.51850891 C7.84747509 22.42185976 -2.8211304 22.3374198 -13.48983765 22.26069641 C-13.59838382 19.86363518 -13.67736921 17.47153803 -13.73983765 15.07319641 C-13.77335327 14.39966125 -13.8068689 13.7261261 -13.84140015 13.03218079 C-13.91086005 9.47236097 -13.60664772 7.45012513 -11.72421265 4.39741516 C-7.9599707 0.79769428 -5.17411595 0.01095812 0 0 Z " fill="#FCFCFC" transform="translate(188.48983764648438,127.73930358886719)"/>
<path d="M0 0 C4.95 0 9.9 0 15 0 C20 5 20 5 20.55859375 7.28125 C20.51863281 8.0134375 20.47867188 8.745625 20.4375 9.5 C20.39753906 10.27601563 20.35757813 11.05203125 20.31640625 11.8515625 C19.93723637 14.42617282 18.98674485 16.60361965 18 19 C18.66 19.99 19.32 20.98 20 22 C20.30078125 24.7421875 20.30078125 24.7421875 20.3125 27.875 C20.32925781 28.90367187 20.34601563 29.93234375 20.36328125 30.9921875 C19.94933376 34.41949466 19.04951391 36.24491572 17 39 C14 41 14 41 0 41 C0 27.47 0 13.94 0 0 Z " fill="#F9F9F9" transform="translate(151,298)"/>
<path d="M0 0 C2.97 0 5.94 0 9 0 C9.33 4.29 9.66 8.58 10 13 C10.66 11.02 11.32 9.04 12 7 C14.97 7 17.94 7 21 7 C20.79503906 7.73605469 20.59007812 8.47210938 20.37890625 9.23046875 C20.10949219 10.20628906 19.84007812 11.18210937 19.5625 12.1875 C19.29566406 13.15042969 19.02882812 14.11335938 18.75390625 15.10546875 C18.50511719 16.06066406 18.25632813 17.01585937 18 18 C17.7421875 18.76570313 17.484375 19.53140625 17.21875 20.3203125 C16.87938857 24.47749001 18.44976604 27.84934171 19.9375 31.6875 C23 39.81568736 23 39.81568736 23 42 C20.03 42 17.06 42 14 42 C12.02 36.555 12.02 36.555 10 31 C9.67 34.63 9.34 38.26 9 42 C6.03 42 3.06 42 0 42 C0 28.14 0 14.28 0 0 Z " fill="#F0F0F0" transform="translate(232,297)"/>
<path d="M0 0 C2.97 0 5.94 0 9 0 C9.33 2.64 9.66 5.28 10 8 C10.33 7.67 10.66 7.34 11 7 C17.25337459 6.53678707 17.25337459 6.53678707 19.70825195 8.05981445 C21.65602753 10.98534318 21.36968743 13.90155404 21.29296875 17.29296875 C21.28872391 17.99899734 21.28447906 18.70502594 21.28010559 19.43244934 C21.26333034 21.68452303 21.22568243 23.93569742 21.1875 26.1875 C21.17245157 27.71548185 21.15876344 29.24347776 21.14648438 30.77148438 C21.11343089 34.51466872 21.06165832 38.25718196 21 42 C18.36 42 15.72 42 13 42 C12.67 32.76 12.34 23.52 12 14 C11.34 14 10.68 14 10 14 C9.67 23.24 9.34 32.48 9 42 C6.03 42 3.06 42 0 42 C0 28.14 0 14.28 0 0 Z " fill="#F7F7F7" transform="translate(267,297)"/>
<path d="M0 0 C1.02867187 -0.0309375 2.05734375 -0.061875 3.1171875 -0.09375 C7.20570165 0.71333331 8.52804404 2.28107377 11.125 5.5 C11.69262695 8.8215332 11.69262695 8.8215332 11.61328125 12.55078125 C11.60620651 13.20958786 11.59913177 13.86839447 11.59184265 14.54716492 C11.56400979 16.63680034 11.50130819 18.72368476 11.4375 20.8125 C11.41240205 22.23498714 11.38959148 23.65751659 11.36914062 25.08007812 C11.31422446 28.55426861 11.22803685 32.0268655 11.125 35.5 C7.45833333 35.5 3.79166667 35.5 0.125 35.5 C-1.009375 35.5825 -2.14375 35.665 -3.3125 35.75 C-6.875 35.5 -6.875 35.5 -8.56640625 33.85546875 C-11.04872896 29.38728787 -10.59206369 24.44503353 -9.875 19.5 C-6.93405429 15.17507984 -3.87649818 13.77945302 1.125 12.5 C1.125 10.85 1.125 9.2 1.125 7.5 C0.465 7.17 -0.195 6.84 -0.875 6.5 C-0.875 7.82 -0.875 9.14 -0.875 10.5 C-3.515 10.5 -6.155 10.5 -8.875 10.5 C-9.24051028 4.04265178 -9.24051028 4.04265178 -7.73046875 1.80078125 C-5.12138535 -0.02832353 -3.16345382 0.03155565 0 0 Z " fill="#F2F2F2" transform="translate(194.875,303.5)"/>
<path d="M0 0 C1.04027344 -0.01933594 2.08054687 -0.03867187 3.15234375 -0.05859375 C6.84409131 0.57073771 7.80511306 1.47600695 10.0625 4.4375 C10.51660156 7.73730469 10.51660156 7.73730469 10.453125 11.609375 C10.44746521 12.2917926 10.44180542 12.97421021 10.43597412 13.67730713 C10.41365636 15.84809762 10.36347508 18.01721206 10.3125 20.1875 C10.29242876 21.6627365 10.27417907 23.13799899 10.2578125 24.61328125 C10.2138088 28.22189501 10.14481583 31.82953381 10.0625 35.4375 C6.72916667 35.4375 3.39583333 35.4375 0.0625 35.4375 C-1.071875 35.499375 -2.20625 35.56125 -3.375 35.625 C-6.9375 35.4375 -6.9375 35.4375 -8.62890625 34.32421875 C-11.52923171 30.14255547 -10.57992557 24.26781302 -9.9375 19.4375 C-7.02650656 15.07100984 -3.9532219 13.72059165 1.0625 12.4375 C1.0625 10.7875 1.0625 9.1375 1.0625 7.4375 C0.4025 7.4375 -0.2575 7.4375 -0.9375 7.4375 C-1.2675 8.4275 -1.5975 9.4175 -1.9375 10.4375 C-4.5775 10.4375 -7.2175 10.4375 -9.9375 10.4375 C-9.33108601 4.00951166 -9.33108601 4.00951166 -7.765625 1.734375 C-5.15905448 -0.11473058 -3.16757603 0.00391542 0 0 Z " fill="#FAFAFA" transform="translate(300.9375,303.5625)"/>
<path d="M0 0 C0.92941406 -0.00128906 1.85882813 -0.00257813 2.81640625 -0.00390625 C6.2642438 0.74115551 7.42885228 1.6642414 9.4375 4.5625 C9.828125 8.015625 9.828125 8.015625 9.6875 11.8125 C9.65140625 13.07578125 9.6153125 14.3390625 9.578125 15.640625 C9.50851562 17.08695312 9.50851562 17.08695312 9.4375 18.5625 C5.4775 18.5625 1.5175 18.5625 -2.5625 18.5625 C-2.2325 21.8625 -1.9025 25.1625 -1.5625 28.5625 C-0.5725 28.8925 0.4175 29.2225 1.4375 29.5625 C1.4375 26.9225 1.4375 24.2825 1.4375 21.5625 C4.4075 21.5625 7.3775 21.5625 10.4375 21.5625 C10.07998705 29.54695596 10.07998705 29.54695596 7.5 33.625 C3.1787588 36.35884647 -0.57608211 36.49745335 -5.5625 35.5625 C-8.13887471 33.67734777 -9.15917428 32.36915143 -10.5625 29.5625 C-10.88498898 25.63180842 -10.88692843 21.69228381 -10.9375 17.75 C-10.99357422 16.1093457 -10.99357422 16.1093457 -11.05078125 14.43554688 C-11.13873578 6.41702559 -11.13873578 6.41702559 -8.38671875 2.3359375 C-5.27192866 0.38003888 -3.64751029 -0.08624155 0 0 Z " fill="#F8F8F8" transform="translate(339.5625,303.4375)"/>
<path d="M0 0 C3.52711538 0.09257521 5.6001481 0.33731879 8.875 1.75 C11.6430023 5.75883092 11.09318667 9.65100414 10.6875 14.375 C8.0475 14.375 5.4075 14.375 2.6875 14.375 C2.3575 12.065 2.0275 9.755 1.6875 7.375 C1.0275 7.375 0.3675 7.375 -0.3125 7.375 C-0.3125 14.305 -0.3125 21.235 -0.3125 28.375 C0.3475 28.375 1.0075 28.375 1.6875 28.375 C2.0175 25.735 2.3475 23.095 2.6875 20.375 C5.3275 20.375 7.9675 20.375 10.6875 20.375 C11.12367985 25.36683607 11.44486156 29.11273073 8.8125 33.5 C4.42334944 36.13349033 0.68314508 36.41678477 -4.3125 35.375 C-7.65875024 32.84823961 -8.99227847 31.33566458 -10.3125 27.375 C-10.56507326 24.08772075 -10.54374619 20.79598276 -10.5625 17.5 C-10.583125 16.60152344 -10.60375 15.70304687 -10.625 14.77734375 C-10.65436454 9.80739521 -10.56545735 6.40171905 -7.3125 2.375 C-4.73850489 -0.19899511 -3.57680716 0.04840064 0 0 Z " fill="#F6F6F6" transform="translate(218.3125,303.625)"/>
<path d="M0 0 C2.64 0 5.28 0 8 0 C8 2.31 8 4.62 8 7 C8.99 7 9.98 7 11 7 C11 9.31 11 11.62 11 14 C10.01 14 9.02 14 8 14 C8 20.93 8 27.86 8 35 C8.99 35 9.98 35 11 35 C11 36.98 11 38.96 11 41 C9.54207116 41.05399736 8.08357288 41.09279177 6.625 41.125 C5.81289063 41.14820313 5.00078125 41.17140625 4.1640625 41.1953125 C2 41 2 41 0 39 C-0.22705078 36.47802734 -0.22705078 36.47802734 -0.1953125 33.3359375 C-0.18886719 32.21445312 -0.18242187 31.09296875 -0.17578125 29.9375 C-0.15902344 28.761875 -0.14226562 27.58625 -0.125 26.375 C-0.11597656 25.19164062 -0.10695313 24.00828125 -0.09765625 22.7890625 C-0.07402812 19.85917477 -0.04108514 16.9296866 0 14 C-0.66 14 -1.32 14 -2 14 C-2 11.69 -2 9.38 -2 7 C-1.34 7 -0.68 7 0 7 C0 4.69 0 2.38 0 0 Z " fill="#F8F8F8" transform="translate(316,298)"/>
<path d="M0 0 C2.64 0 5.28 0 8 0 C8 13.53 8 27.06 8 41 C5.36 41 2.72 41 0 41 C0 27.47 0 13.94 0 0 Z " fill="#FFFFFF" transform="translate(174,298)"/>
<path d="M0 0 C1.32 0.33 2.64 0.66 4 1 C4 3.97 4 6.94 4 10 C2.02 10.99 2.02 10.99 0 12 C0 8.04 0 4.08 0 0 Z " fill="#0E0E0E" transform="translate(159,320)"/>
<path d="M0 0 C0.66 0 1.32 0 2 0 C2 3.63 2 7.26 2 11 C0.68 11 -0.64 11 -2 11 C-2.05399736 9.54207116 -2.09279177 8.08357288 -2.125 6.625 C-2.15980469 5.40683594 -2.15980469 5.40683594 -2.1953125 4.1640625 C-2 2 -2 2 0 0 Z " fill="#242424" transform="translate(301,321)"/>
<path d="M0 0 C0.66 0 1.32 0 2 0 C2 3.63 2 7.26 2 11 C1.01 11.33 0.02 11.66 -1 12 C-1.02687279 10.18757948 -1.04633715 8.37504767 -1.0625 6.5625 C-1.07410156 5.55316406 -1.08570313 4.54382813 -1.09765625 3.50390625 C-1 1 -1 1 0 0 Z " fill="#0A0A0A" transform="translate(195,321)"/>
<path d="M0 0 C0.99 0 1.98 0 3 0 C3 2.64 3 5.28 3 8 C1.68 8 0.36 8 -1 8 C-1.04241723 5.66705225 -1.04092937 3.33297433 -1 1 C-0.67 0.67 -0.34 0.34 0 0 Z " fill="#1A1A1A" transform="translate(338,310)"/>
<path d="M0 0 C0.99 0 1.98 0 3 0 C3 2.97 3 5.94 3 9 C2.01 9 1.02 9 0 9 C0 6.03 0 3.06 0 0 Z " fill="#080808" transform="translate(159,304)"/>
</svg>
