<?xml version="1.0" encoding="UTF-8"?>
<svg version="1.1" xmlns="http://www.w3.org/2000/svg" width="1472" height="832">
<path d="M0 0 C485.76 0 971.52 0 1472 0 C1472 274.56 1472 549.12 1472 832 C986.24 832 500.48 832 0 832 C0 557.44 0 282.88 0 0 Z " fill="#CBCBCB" transform="translate(0,0)"/>
<path d="M0 0 C1.32 0.33 2.64 0.66 4 1 C4.495 5.455 4.495 5.455 5 10 C5.66 9.67 6.32 9.34 7 9 C24.29287303 7.31221559 39.79912683 13.51690083 55 21 C56.0415625 21.50660156 57.083125 22.01320312 58.15625 22.53515625 C83.76400787 35.7437555 104.05812295 59.74449437 113.37109375 86.98632812 C115.31812621 93.22046 116.67720181 99.6098672 118 106 C118.17724609 106.77770752 118.35449219 107.55541504 118.53710938 108.35668945 C119.44433234 113.53733454 119.1846631 118.81707779 119.1875 124.0625 C119.19974609 125.22716797 119.21199219 126.39183594 119.22460938 127.59179688 C119.23744058 135.26913464 118.52664627 142.47959877 117 150 C116.85925049 150.72405029 116.71850098 151.44810059 116.57348633 152.1940918 C110.42444225 182.35045347 91.27646615 207.3106664 66.03613281 224.32373047 C55.32224325 231.34166343 44.16799615 236.09532308 32 240 C30.91332031 240.34933594 29.82664062 240.69867188 28.70703125 241.05859375 C1.21951961 249.16140043 -31.44233425 244.29091124 -56.41015625 230.97265625 C-57.60815656 230.31763224 -58.80488406 229.66027198 -60 229 C-61.42119141 228.22462891 -61.42119141 228.22462891 -62.87109375 227.43359375 C-74.11549933 220.99568915 -83.05097716 212.22579674 -92 203 C-91.67 202.01 -91.34 201.02 -91 200 C-86.58367067 200.41565453 -84.39710271 203.43319067 -81.5625 206.5 C-68.3779265 220.15784504 -51.10499978 229.56232088 -33 235 C-31.93910156 235.3196875 -30.87820313 235.639375 -29.78515625 235.96875 C-18.97565671 238.7450305 -8.0815877 238.29352209 3 238 C3 236.68 3 235.36 3 234 C2.01 233.67 1.02 233.34 0 233 C-0.33 207.26 -0.66 181.52 -1 155 C-3.97 154.34 -6.94 153.68 -10 153 C-18.05050177 149.14768582 -24.84652176 142.40927531 -28 134 C-28 131.69 -28 129.38 -28 127 C-47.47 127 -66.94 127 -87 127 C-87 125.68 -87 124.36 -87 123 C-86.34 123 -85.68 123 -85 123 C-85.33 122.01 -85.66 121.02 -86 120 C-86.06970052 117.60509014 -86.08448003 115.20832309 -86.0625 112.8125 C-86.05347656 111.54019531 -86.04445313 110.26789063 -86.03515625 108.95703125 C-86.02355469 107.98121094 -86.01195312 107.00539063 -86 106 C-84.02 105.505 -84.02 105.505 -82 105 C-81.97314905 107.47923801 -81.95323453 109.9581884 -81.9375 112.4375 C-81.92912109 113.14455078 -81.92074219 113.85160156 -81.91210938 114.58007812 C-81.90346412 116.38693559 -81.94779989 118.19387603 -82 120 C-82.495 120.495 -82.495 120.495 -83 121 C-65.18 121.33 -47.36 121.66 -29 122 C-28.67 120.35 -28.34 118.7 -28 117 C-24.38106205 108.20893184 -18.54625519 102.27954462 -9.8125 98.5625 C-6.09205932 97.12601321 -4.21610877 97 0 97 C0 64.99 0 32.98 0 0 Z " fill="#B8B8B8" transform="translate(734,212)"/>
<path d="M0 0 C1.32 0.33 2.64 0.66 4 1 C4 32.68 4 64.36 4 97 C6.97 97.66 9.94 98.32 13 99 C21.09647386 103.33421913 26.11109698 110.41012346 29 119 C29 120.32 29 121.64 29 123 C46.16 123 63.32 123 81 123 C77.80023148 97.40185181 71.57960624 80.00497577 51.8125 63.25 C45.46364342 58.55184613 38.10452321 55.37756022 31 52 C29.66457026 51.33754273 28.32989704 50.67349542 27 50 C27 49.01 27 48.02 27 47 C40.70253179 47 51.90534279 55.89072463 61.203125 65.140625 C62.12609375 66.08421875 63.0490625 67.0278125 64 68 C65.01320313 68.98226562 65.01320313 68.98226562 66.046875 69.984375 C81.19079161 85.68403166 86.49508692 107.96034011 86.21484375 129.1015625 C85.53219738 151.02256717 75.12275295 169.81091919 60 185 C59.36578125 185.66902344 58.7315625 186.33804688 58.078125 187.02734375 C53.85826793 191.14450518 49.02046078 193.77347957 43.8125 196.4375 C43.12260986 196.79231445 42.43271973 197.14712891 41.72192383 197.51269531 C38.01227913 199.32324285 35.22935725 200.46810362 31 200 C32 197 32 197 34.80859375 195.45703125 C36.00613281 194.91433594 37.20367188 194.37164062 38.4375 193.8125 C45.06569306 190.66710271 50.53099011 186.93264464 56 182 C56.68449219 181.40832031 57.36898437 180.81664062 58.07421875 180.20703125 C73.88909314 165.63497607 78.01405159 147.90163885 81 127 C63.84 127 46.68 127 29 127 C28.67 129.97 28.34 132.94 28 136 C24.5168434 142.91419615 19.29949986 149.07259641 12 152 C8.04 152.99 8.04 152.99 4 154 C4 179.74 4 205.48 4 232 C2.68 232 1.36 232 0 232 C-0.33 206.59 -0.66 181.18 -1 155 C-3.97 154.34 -6.94 153.68 -10 153 C-18.05050177 149.14768582 -24.84652176 142.40927531 -28 134 C-28 131.69 -28 129.38 -28 127 C-47.47 127 -66.94 127 -87 127 C-87 125.68 -87 124.36 -87 123 C-86.34 123 -85.68 123 -85 123 C-85.33 122.01 -85.66 121.02 -86 120 C-86.06970052 117.60509014 -86.08448003 115.20832309 -86.0625 112.8125 C-86.05347656 111.54019531 -86.04445313 110.26789063 -86.03515625 108.95703125 C-86.02355469 107.98121094 -86.01195312 107.00539063 -86 106 C-84.02 105.505 -84.02 105.505 -82 105 C-81.97314905 107.47923801 -81.95323453 109.9581884 -81.9375 112.4375 C-81.92912109 113.14455078 -81.92074219 113.85160156 -81.91210938 114.58007812 C-81.90346412 116.38693559 -81.94779989 118.19387603 -82 120 C-82.495 120.495 -82.495 120.495 -83 121 C-65.18 121.33 -47.36 121.66 -29 122 C-28.67 120.35 -28.34 118.7 -28 117 C-24.38106205 108.20893184 -18.54625519 102.27954462 -9.8125 98.5625 C-6.09205932 97.12601321 -4.21610877 97 0 97 C0 64.99 0 32.98 0 0 Z " fill="#0F0F0F" transform="translate(734,212)"/>
<path d="M0 0 C7.16660216 4.22264526 13.10104623 9.59520216 16.3125 17.4375 C16.88306984 20.56096829 16.93251632 23.58091416 16.875 26.75 C16.86073975 28.01021973 16.86073975 28.01021973 16.84619141 29.29589844 C16.62180953 35.99103872 15.31716465 40.965886 11.3125 46.4375 C10.91289063 47.06527344 10.51328125 47.69304688 10.1015625 48.33984375 C5.76140518 54.35030404 -0.85431116 57.90862334 -7.6875 60.4375 C-17.63229826 61.92068343 -26.64538863 60.48387411 -34.875 54.6875 C-40.94150247 49.78112549 -46.18583389 44.35537586 -47.6875 36.4375 C-48.67194472 25.57214712 -47.8018924 16.49466052 -41.0625 7.6875 C-30.81853338 -3.36864811 -13.58123416 -6.48038584 0 0 Z " fill="#060606" transform="translate(522.6875,500.5625)"/>
<path d="M0 0 C11.95461272 9.18004645 11.95461272 9.18004645 13.51171875 16.359375 C13.69898158 18.90614943 13.87418353 21.44935704 14 24 C14.05285156 24.76957031 14.10570312 25.53914062 14.16015625 26.33203125 C14.51825106 35.22212415 11.72946264 42.08239887 6.09765625 48.921875 C-0.36049949 55.31989893 -8.62270843 59.27349058 -17.6875 59.375 C-27.32015701 59.20388697 -34.22803841 56.54685568 -41.24609375 49.92578125 C-48.28806273 42.19373068 -50.61964307 34.04686075 -50.43359375 23.671875 C-49.35034299 14.49840006 -44.5344103 7.3148122 -37.3984375 1.625 C-26.48242316 -5.7708664 -11.47610516 -7.1677999 0 0 Z " fill="#070707" transform="translate(794,502)"/>
<path d="M0 0 C0 20.79 0 41.58 0 63 C-3.63 63 -7.26 63 -11 63 C-11.33 49.8 -11.66 36.6 -12 23 C-16.38529033 30.25216414 -16.38529033 30.25216414 -20.7644043 37.50805664 C-23.99230827 42.82864897 -27.29174375 48.00129893 -31 53 C-34.33126085 52.70707879 -35.674468 52.35180525 -37.984375 49.85546875 C-38.56703125 48.97503906 -39.1496875 48.09460938 -39.75 47.1875 C-40.34296875 46.31480469 -40.9359375 45.44210937 -41.546875 44.54296875 C-42.83719226 42.28491355 -43.55030307 40.53842082 -44 38 C-44.66 38 -45.32 38 -46 38 C-48.31 33.38 -50.62 28.76 -53 24 C-53.33 36.87 -53.66 49.74 -54 63 C-57.96 63 -61.92 63 -66 63 C-66 42.54 -66 22.08 -66 1 C-52 1 -52 1 -48.9453125 3.71875 C-47.97509766 5.52246094 -47.97509766 5.52246094 -47.125 7.5 C-46.61332275 8.49821777 -46.61332275 8.49821777 -46.09130859 9.51660156 C-45.00773541 11.65579764 -44.00507191 13.82298355 -43 16 C-41.90631019 18.21646712 -40.79595577 20.42396194 -39.68310547 22.63085938 C-38.99145175 24.01608187 -38.31277286 25.40787929 -37.64892578 26.80664062 C-36.11841205 30.00540622 -34.77039797 32.72249492 -32 35 C-31.76539063 34.34 -31.53078125 33.68 -31.2890625 33 C-29.2863549 28.33915322 -26.63599388 24.08618646 -24.01513672 19.75024414 C-21.8812622 16.21437994 -19.81148795 12.70148626 -17.984375 8.99609375 C-17.66807129 8.39216797 -17.35176758 7.78824219 -17.02587891 7.16601562 C-16.17875157 5.5406331 -15.37302136 3.89386545 -14.5703125 2.24609375 C-12 0 -12 0 0 0 Z " fill="#070707" transform="translate(710,498)"/>
<path d="M0 0 C17.60076439 -1.1019609 32.44193539 4.34106232 48 12 C49.56234375 12.75990234 49.56234375 12.75990234 51.15625 13.53515625 C76.76400787 26.7437555 97.05812295 50.74449437 106.37109375 77.98632812 C108.31812621 84.22046 109.67720181 90.6098672 111 97 C111.17724609 97.77770752 111.35449219 98.55541504 111.53710938 99.35668945 C112.44433234 104.53733454 112.1846631 109.81707779 112.1875 115.0625 C112.19974609 116.22716797 112.21199219 117.39183594 112.22460938 118.59179688 C112.23744058 126.26913464 111.52664627 133.47959877 110 141 C109.85925049 141.72405029 109.71850098 142.44810059 109.57348633 143.1940918 C103.42444225 173.35045347 84.27646615 198.3106664 59.03613281 215.32373047 C48.32224325 222.34166343 37.16799615 227.09532308 25 231 C23.91332031 231.34933594 22.82664062 231.69867188 21.70703125 232.05859375 C-5.78048039 240.16140043 -38.44233425 235.29091124 -63.41015625 221.97265625 C-64.60815656 221.31763224 -65.80488406 220.66027198 -67 220 C-68.42119141 219.22462891 -68.42119141 219.22462891 -69.87109375 218.43359375 C-81.11549933 211.99568915 -90.05097716 203.22579674 -99 194 C-98.67 193.01 -98.34 192.02 -98 191 C-93.58367067 191.41565453 -91.39710271 194.43319067 -88.5625 197.5 C-68.9925381 217.77244243 -40.18084764 229.64440452 -12.12915039 230.42456055 C21.19118354 230.5885477 51.59837466 218.61487841 75.875 195.625 C90.55332826 180.02753543 100.41764698 160.81833111 105 140 C105.24363281 139.01515625 105.48726562 138.0303125 105.73828125 137.015625 C111.53746898 109.71604739 105.28074028 79.55728977 90.265625 56.30859375 C87.12425256 51.63546663 83.65739894 47.27743009 80 43 C79.28457031 42.08541016 79.28457031 42.08541016 78.5546875 41.15234375 C62.81152584 21.40592098 35.49968265 9.96005761 11.3125 5.25 C10.21744141 5.02957031 9.12238281 4.80914062 7.99414062 4.58203125 C5.33084963 4.04704703 2.66628002 3.51984278 0 3 C0 2.01 0 1.02 0 0 Z " fill="#141413" transform="translate(741,221)"/>
<path d="M0 0 C2.625 1.7265625 2.625 1.7265625 4.625 3.7265625 C4.43907107 6.51549651 3.5699417 7.79931811 1.875 10.0390625 C-0.375 11.7265625 -0.375 11.7265625 -2.75 11.7265625 C-5.97658389 10.49738768 -8.52701632 8.66561522 -11.375 6.7265625 C-16.73100703 5.02237845 -22.59025426 4.68282421 -27.88671875 6.66796875 C-32.71484731 9.21370926 -37.22637745 12.07753711 -38.94921875 17.55078125 C-40.30807629 24.49466794 -40.07348208 30.94171886 -36.53125 37.140625 C-35.08613396 39.1227774 -33.42922017 40.40599239 -31.375 41.7265625 C-31.375 42.3865625 -31.375 43.0465625 -31.375 43.7265625 C-24.92190717 45.63859001 -17.76918767 47.44215695 -11.25390625 44.8984375 C-8.64647951 43.44565088 -6.48463247 41.83619497 -4.375 39.7265625 C-0.56590105 40.05074113 1.40872163 40.58237692 4.625 42.7265625 C4.54652313 45.39477602 4.07484093 47.18702936 2.3515625 49.25390625 C-5.17610727 56.19844668 -13.3754949 58.38031515 -23.47241211 58.26513672 C-33.02477018 57.81430801 -39.29506978 53.62148779 -45.68359375 46.78125 C-52.49514808 38.50670594 -53.17289691 30.03161596 -52.59277344 19.67089844 C-51.65629933 11.3098224 -45.69214077 4.78700741 -39.375 -0.2734375 C-27.48051402 -9.3432589 -12.1910974 -6.85749229 0 0 Z " fill="#080908" transform="translate(1012.375,503.2734375)"/>
<path d="M0 0 C5.02938115 3.68029822 8.55999156 8.15645862 9.8203125 14.33203125 C10.36863529 21.13123385 9.61551696 26.89541513 5.203125 32.3203125 C1.2997713 36.36606323 -1.67804801 39.07282523 -7.421875 39.66796875 C-19.47907194 39.79761603 -19.47907194 39.79761603 -24.1796875 35.33203125 C-24.71078125 34.86152344 -25.241875 34.39101563 -25.7890625 33.90625 C-29.70981313 30.29355835 -31.81762789 27.14851823 -32.515625 21.71875 C-32.62198083 14.36956246 -31.66572473 9.04110878 -26.53125 3.578125 C-18.84439996 -3.38703388 -9.31986838 -5.33911488 0 0 Z " fill="#ADADAD" transform="translate(518.1796875,510.66796875)"/>
<path d="M0 0 C4.80059306 2.88447652 7.69116705 7.19850114 9.4375 12.4375 C10.3608677 20.11664661 9.70967481 25.87146382 5.2578125 32.30078125 C1.54376202 36.66040703 -1.73928331 39.05405379 -7.49609375 39.8359375 C-13.56287817 40.03286184 -18.37781546 39.65200441 -23.5625 36.4375 C-29.07509822 31.26454054 -32.64523911 25.79051288 -33.125 18.125 C-32.90161921 10.98652677 -29.83202525 6.66918352 -24.875 1.76953125 C-18.08064525 -3.45802187 -7.67606723 -3.35008627 0 0 Z " fill="#A2A2A2" transform="translate(787.5625,510.5625)"/>
<path d="M0 0 C1.79296875 1.265625 1.79296875 1.265625 2.67578125 3.203125 C2.8696149 6.61459731 0.76713262 8.63340651 -1.20703125 11.265625 C-3.35354071 10.80565869 -5.10635156 10.32189352 -7.03125 9.24609375 C-9.58715881 8.09432874 -11.47499076 7.96576998 -14.26953125 7.953125 C-15.12675781 7.93636719 -15.98398437 7.91960937 -16.8671875 7.90234375 C-19.67407966 8.33813836 -20.52344655 9.01729354 -22.20703125 11.265625 C-22.92900287 13.87173577 -22.92900287 13.87173577 -23.20703125 16.265625 C-22.21703125 16.595625 -21.22703125 16.925625 -20.20703125 17.265625 C-20.20703125 17.925625 -20.20703125 18.585625 -20.20703125 19.265625 C-19.40652344 19.50345703 -19.40652344 19.50345703 -18.58984375 19.74609375 C-10.91218639 22.15034285 -1.79581947 25.11823612 3.79296875 31.19921875 C6.19695789 36.16683693 5.52700638 41.94385215 4.79296875 47.265625 C2.31522245 52.69760727 -2.11939431 56.75856411 -7.50390625 59.38671875 C-15.33252726 61.93215188 -23.9516377 60.89332177 -31.20703125 57.265625 C-34.20703125 55.078125 -34.20703125 55.078125 -36.20703125 53.265625 C-35.63350232 49.39430472 -33.71998773 47.18389704 -31.20703125 44.265625 C-28.45456206 45.31803969 -25.95246796 46.41270601 -23.39453125 47.890625 C-19.21812583 49.69221165 -16.73828575 49.7041335 -12.20703125 49.265625 C-9.5894242 48.46988987 -9.5894242 48.46988987 -8.20703125 46.265625 C-7.51529671 42.15692642 -7.51529671 42.15692642 -8.20703125 38.265625 C-11.75208579 34.76669571 -15.53921533 33.16074643 -20.14453125 31.390625 C-25.66387222 29.16181203 -29.51927452 27.00702652 -33.20703125 22.265625 C-35.12215685 16.52024821 -35.17068912 10.4338552 -32.70703125 4.890625 C-23.4459758 -4.83348322 -12.2040105 -5.01698311 0 0 Z " fill="#070707" transform="translate(605.20703125,500.734375)"/>
<path d="M0 0 C9.3212244 8.86653053 9.3212244 8.86653053 9.80078125 13.9765625 C9.96252009 20.70149337 9.71148463 25.95218597 5.5625 31.4375 C2.14483858 35.01050967 -1.76033034 38.04594117 -6.734375 38.7734375 C-12.77854321 38.86968222 -17.63915494 38.34359081 -22.4375 34.4375 C-27.68114266 28.3199169 -30.9779425 22.88079794 -30.83984375 14.65625 C-29.77417405 8.7795472 -25.55049215 3.88906416 -20.875 0.375 C-14.52061616 -3.15113207 -6.49488867 -2.95222212 0 0 Z " fill="#B0B0AF" transform="translate(744.4375,319.5625)"/>
<path d="M0 0 C17.16 0 34.32 0 52 0 C52 3.3 52 6.6 52 10 C45.4 10 38.8 10 32 10 C32 27.16 32 44.32 32 62 C28.04 62 24.08 62 20 62 C20 44.84 20 27.68 20 10 C13.4 10 6.8 10 0 10 C0 6.7 0 3.4 0 0 Z " fill="#090909" transform="translate(833,499)"/>
<path d="M0 0 C3.90682438 1.75133507 5.41790577 3.18506808 7.875 6.625 C9.76743238 12.30229715 9.79832906 17.55805229 7.9375 23.25 C4.65166374 27.91376759 1.94842504 31.47829477 -3.9140625 32.515625 C-8.69279952 32.68163572 -12.13519451 32.40151683 -16.5 30.375 C-21.22211783 25.88898806 -23.77839052 21.70363568 -24.3125 15.1875 C-24.24804334 10.79639006 -22.84937886 8.38845054 -20 5 C-13.58397839 -0.65220952 -8.41073752 -0.7264749 0 0 Z " fill="#9E9D9D" transform="translate(802,583)"/>
<path d="M0 0 C3.96 0 7.92 0 12 0 C12 20.46 12 40.92 12 62 C8.04 62 4.08 62 0 62 C0 41.54 0 21.08 0 0 Z " fill="#080908" transform="translate(913,499)"/>
<path d="M0 0 C2.536875 -0.061875 5.07375 -0.12375 7.6875 -0.1875 C8.47729248 -0.21481201 9.26708496 -0.24212402 10.08081055 -0.27026367 C14.62928046 -0.32374802 17.38608784 0.23089848 21 3 C23 5 23 5 23.375 8.8125 C23.30270863 12.11983012 22.96995307 13.04807509 21.125 16 C19 18 19 18 17 18 C17.5053125 18.85464844 18.010625 19.70929687 18.53125 20.58984375 C19.1809375 21.69457031 19.830625 22.79929687 20.5 23.9375 C21.47453125 25.59072266 21.47453125 25.59072266 22.46875 27.27734375 C24 30 24 30 24 31 C21.73828125 31.26953125 21.73828125 31.26953125 19 31 C16.98046875 29.13671875 16.98046875 29.13671875 15.1875 26.6875 C14.28064453 25.48673828 14.28064453 25.48673828 13.35546875 24.26171875 C12 22 12 22 12 19 C9.69 19 7.38 19 5 19 C5 22.96 5 26.92 5 31 C3.35 31 1.7 31 0 31 C0 20.77 0 10.54 0 0 Z " fill="#151516" transform="translate(738,583)"/>
<path d="M0 0 C3.90682438 1.75133507 5.41790577 3.18506808 7.875 6.625 C9.76743238 12.30229715 9.79832906 17.55805229 7.9375 23.25 C4.65166374 27.91376759 1.94842504 31.47829477 -3.9140625 32.515625 C-8.69279952 32.68163572 -12.13519451 32.40151683 -16.5 30.375 C-21.22211783 25.88898806 -23.77839052 21.70363568 -24.3125 15.1875 C-24.24804334 10.79639006 -22.84937886 8.38845054 -20 5 C-13.58397839 -0.65220952 -8.41073752 -0.7264749 0 0 Z M-18 9 C-19.73459436 12.46918872 -19.47173877 16.20696532 -19 20 C-16.9949912 23.8026029 -15.57313738 25.61790841 -12 28 C-7.20855735 28.47128944 -4.9710053 28.51298393 -0.6875 26.25 C2.43372828 23.63687865 4.67192336 21.68139276 5.46875 17.59765625 C5.54966464 11.83469916 5.54966464 11.83469916 2.625 6.9375 C-4.50812467 1.67257465 -12.09066331 2.63609895 -18 9 Z " fill="#131313" transform="translate(802,583)"/>
<path d="M0 0 C6.93 0 13.86 0 21 0 C21 1.32 21 2.64 21 4 C15.72 4 10.44 4 5 4 C5 7.3 5 10.6 5 14 C8.96 14 12.92 14 17 14 C17 14.99 17 15.98 17 17 C13.04 17 9.08 17 5 17 C5 20.3 5 23.6 5 27 C10.61 27 16.22 27 22 27 C22 28.65 22 30.3 22 32 C14.74 32 7.48 32 0 32 C0 21.44 0 10.88 0 0 Z " fill="#1C1D1C" transform="translate(699,583)"/>
<path d="M0 0 C1.65 0 3.3 0 5 0 C5.3403125 0.88300781 5.680625 1.76601563 6.03125 2.67578125 C10.25819 13.14195449 15.48476573 22.33628915 24 30 C24.57105469 30.54011719 25.14210938 31.08023437 25.73046875 31.63671875 C35.27785218 40.42183603 45.937328 44.77956141 58 49 C58 50.32 58 51.64 58 53 C45.52817574 53 32.98743544 45.21661525 24 37 C23.10796875 36.19949219 22.2159375 35.39898437 21.296875 34.57421875 C11.59555554 25.4162792 4.73582994 14.49985882 0 2 C0 1.34 0 0.68 0 0 Z " fill="#161615" transform="translate(651,364)"/>
<path d="M0 0 C7.26 0 14.52 0 22 0 C21.12780231 4.36098847 20.79385168 5.73732066 18.3828125 9.06640625 C17.85816406 9.79923828 17.33351563 10.53207031 16.79296875 11.28710938 C16.24253906 12.03798828 15.69210937 12.78886719 15.125 13.5625 C14.58230469 14.31724609 14.03960938 15.07199219 13.48046875 15.84960938 C11.02199901 19.26081127 8.52304219 22.63594374 6 26 C11.28 26.33 16.56 26.66 22 27 C22 28.65 22 30.3 22 32 C14.08 32 6.16 32 -2 32 C-1.07879942 27.39399711 -0.60140677 26.01281129 2.0546875 22.49609375 C2.66957031 21.67302734 3.28445313 20.84996094 3.91796875 20.00195312 C4.56378906 19.15568359 5.20960938 18.30941406 5.875 17.4375 C6.51308594 16.58736328 7.15117188 15.73722656 7.80859375 14.86132812 C9.53147604 12.56834804 11.26489804 10.2837352 13 8 C13.99 6.68 14.98 5.36 16 4 C10.72 3.67 5.44 3.34 0 3 C0 2.01 0 1.02 0 0 Z " fill="#0E0F0F" transform="translate(659,583)"/>
<path d="M0 0 C0.99 0 1.98 0 3 0 C3 30.03 3 60.06 3 91 C-2.20328235 85.79671765 -0.10705343 71.60920662 -0.11638546 64.27947044 C-0.1132288 61.92848371 -0.10555354 59.57753767 -0.09765625 57.2265625 C-0.09578574 55.56505374 -0.09436484 53.90354442 -0.09336853 52.24203491 C-0.08959313 47.91852228 -0.07980681 43.5950445 -0.06866455 39.27154541 C-0.05834197 34.83988923 -0.05384793 30.40822729 -0.04882812 25.9765625 C-0.03817886 17.31769253 -0.0211641 8.65885063 0 0 Z " fill="#050504" transform="translate(734,212)"/>
<path d="M0 0 C15.88005707 -0.99422966 29.8067776 3.25203372 44 10 C44 10.99 44 11.98 44 13 C41.35868051 14.01312474 40.21331733 14.07514493 37.50292969 13.12036133 C36.10155762 12.45170044 36.10155762 12.45170044 34.671875 11.76953125 C27.69778716 8.70538415 20.69895398 7.16096219 13.25 5.6875 C11.96867188 5.42388672 10.68734375 5.16027344 9.3671875 4.88867188 C6.24682011 4.24829797 3.12467005 3.61897188 0 3 C0 2.01 0 1.02 0 0 Z " fill="#191919" transform="translate(741,221)"/>
<path d="M0 0 C9 -0.36 9 -0.36 13.125 1.125 C15 3 15 3 15.4375 6 C15 9 15 9 13 12 C9.9609375 12.29296875 9.9609375 12.29296875 6.375 12.1875 C5.18648437 12.16042969 3.99796875 12.13335938 2.7734375 12.10546875 C1.85820313 12.07066406 0.94296875 12.03585937 0 12 C0 8.04 0 4.08 0 0 Z " fill="#999A9E" transform="translate(742,586)"/>
<path d="M0 0 C0.99 0.66 1.98 1.32 3 2 C2.67 3.32 2.34 4.64 2 6 C7.28 6.33 12.56 6.66 18 7 C18 8.65 18 10.3 18 12 C10.08 12 2.16 12 -6 12 C-4.875 6.375 -4.875 6.375 -2.4375 3.1875 C-1.98246094 2.58292969 -1.52742187 1.97835937 -1.05859375 1.35546875 C-0.53458984 0.68451172 -0.53458984 0.68451172 0 0 Z " fill="#454545" transform="translate(663,603)"/>
<path d="M0 0 C2.30959937 3.46439905 2.03577569 4.93946418 1.42578125 8.9375 C0.8534227 11.71002582 -0.06859063 14.32995981 -1 17 C-1 17.99 -1 18.98 -1 20 C-3.44259067 28.268397 -7.89464583 35.89464583 -14 42 C-14.99 41.67 -15.98 41.34 -17 41 C-16.49210938 40.15179688 -15.98421875 39.30359375 -15.4609375 38.4296875 C-8.22503749 26.17576758 -2.66782023 14.08796296 0 0 Z " fill="#A4A4A4" transform="translate(850,362)"/>
<path d="M0 0 C0.99 0 1.98 0 3 0 C3.02685095 2.47923801 3.04676547 4.9581884 3.0625 7.4375 C3.07087891 8.14455078 3.07925781 8.85160156 3.08789062 9.58007812 C3.09653588 11.38693559 3.05220011 13.19387603 3 15 C2.67 15.33 2.34 15.66 2 16 C19.82 16.33 37.64 16.66 56 17 C56.495 15.515 56.495 15.515 57 14 C57 15.32 57 16.64 57 18 C38.19 18 19.38 18 0 18 C-1.17794853 14.46615441 -1.13264317 11.59722447 -1.125 7.875 C-1.12886719 5.98394531 -1.12886719 5.98394531 -1.1328125 4.0546875 C-1 1 -1 1 0 0 Z " fill="#959594" transform="translate(649,317)"/>
<path d="M0 0 C0.99 0 1.98 0 3 0 C4.66905328 5.07313033 5.29023441 9.57990035 5.1875 14.9375 C5.18105469 15.63681641 5.17460938 16.33613281 5.16796875 17.05664062 C5.09754967 21.77911984 4.77581674 26.34509957 4 31 C3.34 31 2.68 31 2 31 C1.67 31.66 1.34 32.32 1 33 C0.67 22.11 0.34 11.22 0 0 Z " fill="#0D0E0D" transform="translate(848,316)"/>
<path d="M0 0 C17.16 0 34.32 0 52 0 C52 0.33 52 0.66 52 1 C26.755 1.495 26.755 1.495 1 2 C1 4.31 1 6.62 1 9 C0 11.4375 0 11.4375 -1 13 C-1.66 13 -2.32 13 -3 13 C-2.67 13.99 -2.34 14.98 -2 16 C-5.08297927 19.25914951 -7.9161331 22.06553673 -12 24 C-12.99 23.67 -13.98 23.34 -15 23 C-13.96875 22.360625 -12.9375 21.72125 -11.875 21.0625 C-4.11732451 15.47634422 -2.05437914 9.24470611 0 0 Z " fill="#8E8E8C" transform="translate(763,339)"/>
<path d="M0 0 C5.61 0 11.22 0 17 0 C17 2.97 17 5.94 17 9 C14.5625 8.625 14.5625 8.625 12 8 C11.67 7.34 11.34 6.68 11 6 C9.845 5.690625 8.69 5.38125 7.5 5.0625 C6.345 4.711875 5.19 4.36125 4 4 C3.67 3.01 3.34 2.02 3 1 C2.01 0.67 1.02 0.34 0 0 Z " fill="#959493" transform="translate(836,509)"/>
<path d="M0 0 C2.475 0.495 2.475 0.495 5 1 C5 26.41 5 51.82 5 78 C4.67 78 4.34 78 4 78 C4 53.25 4 28.5 4 3 C2.68 2.67 1.36 2.34 0 2 C0 1.34 0 0.68 0 0 Z " fill="#919191" transform="translate(729,366)"/>
<path d="M0 0 C1.80791016 0.07734375 1.80791016 0.07734375 3.65234375 0.15625 C4.90660156 0.22070312 6.16085937 0.28515625 7.453125 0.3515625 C8.72285156 0.40828125 9.99257813 0.465 11.30078125 0.5234375 C14.43547115 0.66485208 17.56935336 0.81626241 20.703125 0.9765625 C17.4950354 3.84182452 15.43440919 4.35301727 11.16796875 4.33984375 C10.11158203 4.33919922 9.05519531 4.33855469 7.96679688 4.33789062 C6.3203418 4.3137207 6.3203418 4.3137207 4.640625 4.2890625 C3.53912109 4.29228516 2.43761719 4.29550781 1.30273438 4.29882812 C-6.89611617 4.24373505 -6.89611617 4.24373505 -10.296875 1.9765625 C-6.77383102 -0.21971811 -4.09617243 -0.19321568 0 0 Z " fill="#090909" transform="translate(723.296875,451.0234375)"/>
<path d="M0 0 C0.66 0 1.32 0 2 0 C2 0.66 2 1.32 2 2 C2.66 2.33 3.32 2.66 4 3 C3.20890398 4.27118864 2.41709922 5.54193623 1.625 6.8125 C1.18414063 7.52019531 0.74328125 8.22789062 0.2890625 8.95703125 C-0.78188476 10.65432039 -1.88676239 12.33014358 -3 14 C-2.195625 15.03125 -1.39125 16.0625 -0.5625 17.125 C1.7608839 20.38565808 2.90697095 22.90672183 3 27 C2.34 27.99 1.68 28.98 1 30 C0.67 29.01 0.34 28.02 0 27 C-0.66 27 -1.32 27 -2 27 C-2 26.34 -2 25.68 -2 25 C-2.66 24.67 -3.32 24.34 -4 24 C-2.68 23.67 -1.36 23.34 0 23 C-0.433125 22.30132813 -0.86625 21.60265625 -1.3125 20.8828125 C-1.869375 19.97273437 -2.42625 19.06265625 -3 18.125 C-3.556875 17.22007812 -4.11375 16.31515625 -4.6875 15.3828125 C-6 13 -6 13 -6 11 C-5.195625 10.2575 -4.39125 9.515 -3.5625 8.75 C-0.71287976 5.69187096 -0.28527911 4.08900062 0 0 Z " fill="#9A9A9A" transform="translate(761,590)"/>
<path d="M0 0 C0.99 0.33 1.98 0.66 3 1 C-10.52241379 13.26637931 -10.52241379 13.26637931 -17 18 C-17.66 17.67 -18.32 17.34 -19 17 C-17.93071226 15.34500689 -16.84402808 13.70124374 -15.75 12.0625 C-15.14671875 11.14597656 -14.5434375 10.22945312 -13.921875 9.28515625 C-11.83461942 6.80335846 -11.08525194 6.48813317 -8 6 C-6.29749607 4.71274093 -4.62935241 3.37868281 -3 2 C-2.01 1.34 -1.02 0.68 0 0 Z " fill="#A9AAAA" transform="translate(686,588)"/>
<path d="M0 0 C0.66 0 1.32 0 2 0 C2 0.66 2 1.32 2 2 C7.61 2 13.22 2 19 2 C19 2.99 19 3.98 19 5 C11.74 5 4.48 5 -3 5 C-1 1 -1 1 0 0 Z " fill="#070807" transform="translate(661,609)"/>
<path d="M0 0 C1.423125 0.7425 1.423125 0.7425 2.875 1.5 C2.545 2.16 2.215 2.82 1.875 3.5 C1.33746094 3.17644531 0.79992187 2.85289062 0.24609375 2.51953125 C-2.65764949 1.27096949 -4.90778341 1.19943462 -8.0625 1.1875 C-9.08214844 1.17074219 -10.10179687 1.15398437 -11.15234375 1.13671875 C-14.52959819 1.54944498 -16.34609803 2.5871257 -19.125 4.5 C-19.970625 4.974375 -20.81625 5.44875 -21.6875 5.9375 C-24.20003792 7.54810123 -26.09680155 9.32156463 -28.125 11.5 C-26.4273245 5.55813574 -22.27519859 2.91717634 -17.375 -0.3125 C-11.56712875 -2.4346068 -5.72116623 -2.43700793 0 0 Z " fill="#7C7C7B" transform="translate(1001.125,509.5)"/>
<path d="M0 0 C-0.680625 0.495 -1.36125 0.99 -2.0625 1.5 C-9.67968825 7.9827134 -13.08574377 12.84989002 -14 23 C-14.33 23 -14.66 23 -15 23 C-15.73877238 15.68068101 -15.23598234 10.82979826 -10.72265625 4.88671875 C-4.8 -1.6 -4.8 -1.6 0 0 Z " fill="#807F80" transform="translate(770,511)"/>
<path d="M0 0 C0.99 0 1.98 0 3 0 C3 4.95 3 9.9 3 15 C1.68 15 0.36 15 -1 15 C-1.02685412 12.68756208 -1.04632841 10.3750373 -1.0625 8.0625 C-1.07410156 6.77472656 -1.08570313 5.48695313 -1.09765625 4.16015625 C-1 1 -1 1 0 0 Z " fill="#232221" transform="translate(649,317)"/>
<path d="M0 0 C0.33 0 0.66 0 1 0 C1 13.53 1 27.06 1 41 C0.67 41 0.34 41 0 41 C-0.02505615 40.07662842 -0.0501123 39.15325684 -0.07592773 38.2019043 C-0.17109045 34.77453584 -0.27032214 31.34733539 -0.37231445 27.92016602 C-0.4156133 26.43713985 -0.45729199 24.95406546 -0.49731445 23.47094727 C-0.55513958 21.33855661 -0.61879832 19.20640758 -0.68359375 17.07421875 C-0.73858032 15.14968872 -0.73858032 15.14968872 -0.79467773 13.1862793 C-0.86561234 9.97888449 -0.86561234 9.97888449 -2 7 C-2.99 7.495 -2.99 7.495 -4 8 C-2.87548273 5.0280615 -1.77706209 2.66559313 0 0 Z " fill="#6A696A" transform="translate(698,520)"/>
<path d="M0 0 C4.29 0.33 8.58 0.66 13 1 C12.34 1.66 11.68 2.32 11 3 C12.11375 3.144375 13.2275 3.28875 14.375 3.4375 C18 4 18 4 20 5 C19.67 5.66 19.34 6.32 19 7 C17.41705218 7.05437607 15.83355744 7.09296271 14.25 7.125 C13.36828125 7.14820313 12.4865625 7.17140625 11.578125 7.1953125 C8.8864142 6.99139502 7.30095026 6.36551721 5 5 C5 4.34 5 3.68 5 3 C3.68 3 2.36 3 1 3 C0.67 2.01 0.34 1.02 0 0 Z " fill="#A09F9F" transform="translate(580,560)"/>
<path d="M0 0 C0 0.66 0 1.32 0 2 C-1.269553 2.64834654 -2.54069706 3.29357815 -3.8125 3.9375 C-4.52019531 4.29714844 -5.22789062 4.65679687 -5.95703125 5.02734375 C-8 6 -8 6 -11 7 C-11.66 6.67 -12.32 6.34 -13 6 C-13.33 6.66 -13.66 7.32 -14 8 C-17.01953125 8.88671875 -17.01953125 8.88671875 -20.8125 9.6875 C-22.05644531 9.95949219 -23.30039062 10.23148437 -24.58203125 10.51171875 C-27.70687527 10.95812504 -29.09515705 10.8626792 -32 10 C-30.84999512 9.65219482 -30.84999512 9.65219482 -29.67675781 9.29736328 C-26.2000392 8.24360473 -22.72501389 7.18436605 -19.25 6.125 C-18.0434375 5.76019531 -16.836875 5.39539063 -15.59375 5.01953125 C-14.43359375 4.66503906 -13.2734375 4.31054688 -12.078125 3.9453125 C-10.47565918 3.45828857 -10.47565918 3.45828857 -8.84082031 2.96142578 C-0.09040122 0 -0.09040122 0 0 0 Z " fill="#999897" transform="translate(784,445)"/>
<path d="M0 0 C0.66 0.66 1.32 1.32 2 2 C2.66 1.67 3.32 1.34 4 1 C2.37146751 5.41726132 -1.01712284 8.01593455 -4.4375 11.0625 C-5.60328221 12.11542321 -6.76865995 13.16879446 -7.93359375 14.22265625 C-8.44978271 14.68422119 -8.96597168 15.14578613 -9.49780273 15.62133789 C-11.04330791 17.03974642 -12.52704055 18.50670112 -14 20 C-14.66 19.67 -15.32 19.34 -16 19 C-15.5153125 18.55011719 -15.030625 18.10023438 -14.53125 17.63671875 C-8.91918772 12.25129745 -4.41646703 6.38978209 0 0 Z " fill="#A8A8A8" transform="translate(832,404)"/>
<path d="M0 0 C1.6396875 0.4640625 1.6396875 0.4640625 3.3125 0.9375 C8.48276323 2.2463099 13.69261392 2.62926347 19 3 C19 3.33 19 3.66 19 4 C17.35 4 15.7 4 14 4 C14.99 5.32 15.98 6.64 17 8 C11.25 8.125 11.25 8.125 9 7 C9 6.34 9 5.68 9 5 C8.43410156 4.89042969 7.86820313 4.78085937 7.28515625 4.66796875 C6.55167969 4.50941406 5.81820312 4.35085938 5.0625 4.1875 C4.33160156 4.03667969 3.60070312 3.88585937 2.84765625 3.73046875 C2.23792969 3.48941406 1.62820313 3.24835937 1 3 C0.67 2.01 0.34 1.02 0 0 Z " fill="#A4A4A3" transform="translate(761,558)"/>
<path d="M0 0 C0.433125 0.45375 0.86625 0.9075 1.3125 1.375 C3.10798342 3.20024334 3.10798342 3.20024334 6 5 C5.34 5.66 4.68 6.32 4 7 C2.68 7 1.36 7 0 7 C-1.85525719 8.19759261 -1.85525719 8.19759261 -3.625 9.8125 C-8.05158888 13.34541905 -12.54167778 14.72490014 -18 16 C-18 15.34 -18 14.68 -18 14 C-17.35933594 13.78085937 -16.71867188 13.56171875 -16.05859375 13.3359375 C-10.25741155 11.20912555 -4.99323095 8.88468617 -1 4 C-0.29062657 1.89608734 -0.29062657 1.89608734 0 0 Z " fill="#828282" transform="translate(1017,546)"/>
<path d="M0 0 C0.66 0.33 1.32 0.66 2 1 C1.38276719 8.53024027 1.38276719 8.53024027 -0.375 10.6875 C-1.179375 11.3371875 -1.179375 11.3371875 -2 12 C-2.495 12.845625 -2.99 13.69125 -3.5 14.5625 C-5 17 -5 17 -8 19 C-8 15.42097344 -7.19599191 14.58398893 -5.125 11.75 C-2.41366792 7.84286816 -0.98542178 4.63148235 0 0 Z M-11 18 C-10.34 18.33 -9.68 18.66 -9 19 C-10.98 19.99 -10.98 19.99 -13 21 C-12.34 20.01 -11.68 19.02 -11 18 Z " fill="#848381" transform="translate(807,535)"/>
<path d="M0 0 C-1.34736338 2.93440199 -2.88566965 5.25073427 -5 7.6875 C-5.515625 8.28949219 -6.03125 8.89148438 -6.5625 9.51171875 C-8 11 -8 11 -10 12 C-10.46523063 13.89533342 -10.46523063 13.89533342 -10.625 16.0625 C-10.74875 17.361875 -10.8725 18.66125 -11 20 C-11.33 20 -11.66 20 -12 20 C-12.70737137 13.51576241 -11.42546099 10.29137742 -7.703125 4.98046875 C-3.42011834 0 -3.42011834 0 0 0 Z " fill="#878787" transform="translate(726,320)"/>
<path d="M0 0 C2.24798092 3.37197138 2.15031256 4.77130987 1.55078125 8.671875 C0.2539221 14.15363423 -1.87975939 19.31963909 -5 24 C-5.66 24 -6.32 24 -7 24 C-5.99433365 20.28677041 -4.91528894 16.70273549 -3.5 13.125 C-1.847443 8.84680675 -0.88382469 4.49190903 0 0 Z " fill="#999A98" transform="translate(850,362)"/>
<path d="M0 0 C1.89575251 -0.02721176 3.79161979 -0.04649136 5.6875 -0.0625 C6.74324219 -0.07410156 7.79898438 -0.08570313 8.88671875 -0.09765625 C11.72410262 -0.00865425 14.2438919 0.35060162 17 1 C17 1.66 17 2.32 17 3 C11.39 3 5.78 3 0 3 C0 2.01 0 1.02 0 0 Z " fill="#070707" transform="translate(659,583)"/>
<path d="M0 0 C3.125 1.5 3.125 1.5 5 3 C4.01 3.33 3.02 3.66 2 4 C1.34 3.67 0.68 3.34 0 3 C-2.10854036 2.7647268 -2.10854036 2.7647268 -4.4375 2.75 C-5.61119141 2.71132813 -5.61119141 2.71132813 -6.80859375 2.671875 C-9.54447458 3.08152561 -10.29282391 3.86976279 -12 6 C-12.66 6.99 -13.32 7.98 -14 9 C-14.34098943 5.93109509 -14.21961817 4.36935783 -12.625 1.6875 C-8.58569155 -0.90919829 -4.67111343 -0.6565216 0 0 Z " fill="#909090" transform="translate(596,508)"/>
<path d="M0 0 C0.33 0.66 0.66 1.32 1 2 C-1.8367653 8.45722841 -5.80869615 14.42837 -9.80078125 20.22265625 C-11.04863467 21.98931253 -11.04863467 21.98931253 -12 24 C-13.32 23.67 -14.64 23.34 -16 23 C-15.40219727 22.4337793 -14.80439453 21.86755859 -14.18847656 21.28417969 C-12.09772539 19.10199896 -10.57541673 17.01262692 -8.984375 14.453125 C-8.45585938 13.60878906 -7.92734375 12.76445313 -7.3828125 11.89453125 C-6.84398437 11.02183594 -6.30515625 10.14914062 -5.75 9.25 C-5.19570313 8.36183594 -4.64140625 7.47367188 -4.0703125 6.55859375 C-2.70871184 4.37533752 -1.35214218 2.189122 0 0 Z " fill="#838382" transform="translate(693,528)"/>
<path d="M0 0 C4.29 0 8.58 0 13 0 C13 1.65 13 3.3 13 5 C11.35696827 6.64303173 9.31992705 6.31862853 7.0625 6.5 C3.39442535 6.75214943 3.39442535 6.75214943 0 8 C0 6.68 0 5.36 0 4 C3.96 4 7.92 4 12 4 C12 3.01 12 2.02 12 1 C8.04 1 4.08 1 0 1 C0 0.67 0 0.34 0 0 Z " fill="#7F7E7F" transform="translate(704,596)"/>
<path d="M0 0 C2.44394636 0.90182523 4.87911709 1.82044326 7.3125 2.75 C8.34793945 3.12898437 8.34793945 3.12898437 9.40429688 3.515625 C13.34308106 5.03786043 15.88251793 6.26803926 18 10 C14.20020912 9.23065962 10.83829012 7.71219779 7.3125 6.125 C6.15363281 5.61195313 4.99476563 5.09890625 3.80078125 4.5703125 C1 3 1 3 0 0 Z " fill="#A9A9A9" transform="translate(579,529)"/>
<path d="M0 0 C2.3125 -0.3125 2.3125 -0.3125 5 0 C6.625 2.5 6.625 2.5 8 5 C8.99 5 9.98 5 11 5 C11 6.98 11 8.96 11 11 C7.58540447 9.86180149 6.6675842 8.75994482 4.375 6.0625 C3.76398437 5.35222656 3.15296875 4.64195312 2.5234375 3.91015625 C1 2 1 2 0 0 Z " fill="#A2A2A3" transform="translate(794,276)"/>
<path d="M0 0 C0.66 0.33 1.32 0.66 2 1 C1.67 1.66 1.34 2.32 1 3 C1.66 3.33 2.32 3.66 3 4 C0.05277756 5.80108038 -2.88931798 7.49829144 -6 9 C-6.99 9.495 -6.99 9.495 -8 10 C-6.5682479 4.98886765 -4.01554307 3.05530451 0 0 Z " fill="#191A19" transform="translate(787,584)"/>
<path d="M0 0 C3 1 3 1 4.75 4.25 C5.97360642 7.92081925 6.19463679 9.41608962 5 13 C4.34 12.67 3.68 12.34 3 12 C3 11.34 3 10.68 3 10 C2.34 10 1.68 10 1 10 C1 9.34 1 8.68 1 8 C0.34 7.67 -0.32 7.34 -1 7 C0.32 6.67 1.64 6.34 3 6 C2.01 4.02 1.02 2.04 0 0 Z " fill="#8F8E8F" transform="translate(758,607)"/>
<path d="M0 0 C2.31 0 4.62 0 7 0 C7 0.66 7 1.32 7 2 C5.35 2 3.7 2 2 2 C2.03480469 2.68707031 2.06960938 3.37414062 2.10546875 4.08203125 C2.13253906 4.98308594 2.15960937 5.88414062 2.1875 6.8125 C2.22230469 7.70582031 2.25710938 8.59914063 2.29296875 9.51953125 C2 12 2 12 0.61328125 13.82421875 C-1 15 -1 15 -3 15 C-3 14.34 -3 13.68 -3 13 C-3.66 12.67 -4.32 12.34 -5 12 C-3.35 12 -1.7 12 0 12 C0 8.04 0 4.08 0 0 Z " fill="#8F8F8E" transform="translate(743,602)"/>
<path d="M0 0 C5.94 2.475 5.94 2.475 12 5 C12 5.99 12 6.98 12 8 C10.55903414 7.57405412 9.12231288 7.13373367 7.6875 6.6875 C6.88699219 6.44386719 6.08648438 6.20023438 5.26171875 5.94921875 C2.87242107 4.94645651 1.60410493 4.01940718 0 2 C0 1.34 0 0.68 0 0 Z " fill="#A4A4A3" transform="translate(974,556)"/>
<path d="M0 0 C-1.55999545 4.21198772 -4.55248619 6.27071823 -8 9 C-8.66 9.66 -9.32 10.32 -10 11 C-10 6.92453987 -8.44695552 5.19463638 -6 2 C-3.76335858 0.55276143 -2.64566409 0 0 0 Z " fill="#A8A8A7" transform="translate(814,377)"/>
<path d="M0 0 C0.99 0 1.98 0 3 0 C3.08090971 1.62418745 3.13914995 3.24951745 3.1875 4.875 C3.22230469 5.77992188 3.25710938 6.68484375 3.29296875 7.6171875 C3.19628906 8.40351563 3.09960938 9.18984375 3 10 C2.01 10.66 1.02 11.32 0 12 C0 8.04 0 4.08 0 0 Z " fill="#0B0B0B" transform="translate(734,212)"/>
<path d="M0 0 C2.25245881 2.68841859 3.88213958 4.64641875 5 8 C3.5625 10.1875 3.5625 10.1875 2 12 C-0.48772258 8.7162062 -1.03180444 7.38801417 -0.6875 3.1875 C-0.460625 2.135625 -0.23375 1.08375 0 0 Z " fill="#191A18" transform="translate(833,272)"/>
<path d="M0 0 C0.99 0.99 1.98 1.98 3 3 C3 3.66 3 4.32 3 5 C2.34 5 1.68 5 1 5 C1 11.6 1 18.2 1 25 C0.67 25 0.34 25 0 25 C0 16.75 0 8.5 0 0 Z " fill="#828283" transform="translate(656,521)"/>
<path d="M0 0 C1.9375 0.375 1.9375 0.375 4 1 C4.33 1.66 4.66 2.32 5 3 C5.99 3.33 6.98 3.66 8 4 C8 5.65 8 7.3 8 9 C4.20620942 7.50958227 2.31656242 5.30937488 0 2 C0 1.34 0 0.68 0 0 Z " fill="#B6B7B8" transform="translate(725,365)"/>
<path d="M0 0 C0.33 0 0.66 0 1 0 C2.86783046 5.48675196 3.2358396 10.22192976 3 16 C2.34 16.33 1.68 16.66 1 17 C0.67 11.39 0.34 5.78 0 0 Z " fill="#707070" transform="translate(807,518)"/>
<path d="M0 0 C0.33 0.66 0.66 1.32 1 2 C1.66 2.33 2.32 2.66 3 3 C2.37240135 5.92879371 1.41377341 8.36095629 0 11 C-0.99 10.67 -1.98 10.34 -3 10 C-2.01 6.7 -1.02 3.4 0 0 Z " fill="#969593" transform="translate(815,363)"/>
<path d="M0 0 C0.66 0.33 1.32 0.66 2 1 C-1.63 4.63 -5.26 8.26 -9 12 C-9 8.47601214 -8.44884893 7.98495633 -6.1875 5.4375 C-5.40439453 4.53837891 -5.40439453 4.53837891 -4.60546875 3.62109375 C-3 2 -3 2 0 0 Z " fill="#212021" transform="translate(719,313)"/>
<path d="M0 0 C5.28 0 10.56 0 16 0 C16 0.33 16 0.66 16 1 C9.565 1.495 9.565 1.495 3 2 C2.34 4.31 1.68 6.62 1 9 C0.67 9 0.34 9 0 9 C0 6.03 0 3.06 0 0 Z " fill="#A7A7A6" transform="translate(704,587)"/>
<path d="M0 0 C0.66 0.33 1.32 0.66 2 1 C-1.63 4.63 -5.26 8.26 -9 12 C-9 7.8407692 -6.75316432 5.85455565 -4 3 C-1.6875 1.125 -1.6875 1.125 0 0 Z " fill="#232322" transform="translate(489,502)"/>
<path d="M0 0 C1.98 0.66 3.96 1.32 6 2 C6 2.66 6 3.32 6 4 C5.0925 4.28875 4.185 4.5775 3.25 4.875 C-0.19166475 5.98747068 -0.19166475 5.98747068 -4 8 C-2.68 5.36 -1.36 2.72 0 0 Z " fill="#A0A0A0" transform="translate(608,503)"/>
<path d="M0 0 C2.35964273 0.40683495 3.85934088 0.89814339 5.8125 2.3125 C7 4 7 4 6.6875 6.1875 C6.3471875 7.0846875 6.3471875 7.0846875 6 8 C6 7.01 6 6.02 6 5 C4.8553125 4.814375 4.8553125 4.814375 3.6875 4.625 C1 4 1 4 -2 2 C-1.34 2 -0.68 2 0 2 C0 1.34 0 0.68 0 0 Z " fill="#181919" transform="translate(754,584)"/>
<path d="M0 0 C2.31 0 4.62 0 7 0 C8.4606285 2.64738916 9 3.89448334 9 7 C7.68 6.67 6.36 6.34 5 6 C5 4.35 5 2.7 5 1 C3.35 1 1.7 1 0 1 C0 0.67 0 0.34 0 0 Z " fill="#B3B3B1" transform="translate(699,561)"/>
<path d="M0 0 C2.475 0.495 2.475 0.495 5 1 C5 5.29 5 9.58 5 14 C4.67 14 4.34 14 4 14 C4 10.37 4 6.74 4 3 C2.68 2.67 1.36 2.34 0 2 C0 1.34 0 0.68 0 0 Z " fill="#7E8080" transform="translate(729,366)"/>
<path d="M0 0 C3.45925163 1.2491742 6.14693203 2.67527795 9 5 C7.3125 5.6875 7.3125 5.6875 5 6 C2.25 4.75 2.25 4.75 0 3 C0 2.01 0 1.02 0 0 Z " fill="#B7B6B6" transform="translate(672,440)"/>
<path d="M0 0 C0.33 0.66 0.66 1.32 1 2 C1.66 2 2.32 2 3 2 C3 4.31 3 6.62 3 9 C2.01 9 1.02 9 0 9 C0 6.03 0 3.06 0 0 Z " fill="#0E0E0E" transform="translate(734,435)"/>
<path d="M0 0 C0.33 0.66 0.66 1.32 1 2 C1.66 2 2.32 2 3 2 C3.66 3.65 4.32 5.3 5 7 C2 7 2 7 -0.1875 5 C-0.785625 4.34 -1.38375 3.68 -2 3 C-1.34 2.01 -0.68 1.02 0 0 Z " fill="#AAAAAC" transform="translate(660,421)"/>
<path d="M0 0 C3.3 0 6.6 0 10 0 C10 0.33 10 0.66 10 1 C8.7934375 1.185625 8.7934375 1.185625 7.5625 1.375 C6.716875 1.58125 5.87125 1.7875 5 2 C4.67 2.66 4.34 3.32 4 4 C3.01 4 2.02 4 1 4 C0.67 2.68 0.34 1.36 0 0 Z " fill="#838383" transform="translate(987,561)"/>
<path d="M0 0 C1.32 0.33 2.64 0.66 4 1 C4 1.99 4 2.98 4 4 C1.69 4.66 -0.62 5.32 -3 6 C-2.01 4.02 -1.02 2.04 0 0 Z " fill="#909090" transform="translate(1017,507)"/>
<path d="M0 0 C0 0.99 0 1.98 0 3 C-1.8125 4.75 -1.8125 4.75 -4 6 C-4.99 5.67 -5.98 5.34 -7 5 C-4.69 3.35 -2.38 1.7 0 0 Z M-5 6 C-4.67 6.66 -4.34 7.32 -4 8 C-4.66 7.67 -5.32 7.34 -6 7 C-5.67 6.67 -5.34 6.34 -5 6 Z " fill="#A9A8A8" transform="translate(806,431)"/>
<path d="M0 0 C0.99 0 1.98 0 3 0 C3 3 3 3 1.5 4.6875 C1.005 5.120625 0.51 5.55375 0 6 C-0.99 5.67 -1.98 5.34 -3 5 C-1.6875 2.5 -1.6875 2.5 0 0 Z " fill="#A2A1A1" transform="translate(836,398)"/>
<path d="M0 0 C1.65 0.33 3.3 0.66 5 1 C4.67 2.32 4.34 3.64 4 5 C2.35 4.67 0.7 4.34 -1 4 C-0.67 2.68 -0.34 1.36 0 0 Z " fill="#1D1D1D" transform="translate(712,450)"/>
<path d="M0 0 C-0.5625 1.9375 -0.5625 1.9375 -2 4 C-5.625 4.75 -5.625 4.75 -9 5 C-2.40909091 0 -2.40909091 0 0 0 Z " fill="#A7A7A7" transform="translate(799,437)"/>
</svg>
